<svg xmlns="http://www.w3.org/2000/svg" xmlns:xlink="http://www.w3.org/1999/xlink" width="200" zoomAndPan="magnify" viewBox="0 0 150 52.499999" height="70" preserveAspectRatio="xMidYMid meet" version="1.0"><defs><clipPath id="d037e86d6b"><path d="M 1.949219 6.652344 L 110.835938 6.652344 L 110.835938 42.800781 L 1.949219 42.800781 Z M 1.949219 6.652344 " clip-rule="nonzero"/></clipPath><clipPath id="8fb0385e7d"><path d="M 39.238281 6.757812 L 148.128906 6.757812 L 148.128906 42.910156 L 39.238281 42.910156 Z M 39.238281 6.757812 " clip-rule="nonzero"/></clipPath></defs><g clip-path="url(#d037e86d6b)"><path fill="#ff9f9f" d="M 56.390625 6.398438 L 38.363281 24.40625 L 1.996094 -11.917969 L 1.996094 6.472656 L 38.363281 42.800781 L 56.390625 24.789062 L 74.421875 42.800781 L 110.789062 6.472656 L 110.789062 -11.917969 L 74.421875 24.40625 L 56.390625 6.398438 " fill-opacity="1" fill-rule="nonzero"/></g><g clip-path="url(#8fb0385e7d)"><path fill="#e97777" d="M 93.683594 43.160156 L 111.714844 25.152344 L 148.082031 61.476562 L 148.082031 43.085938 L 111.714844 6.757812 L 93.683594 24.769531 L 75.652344 6.757812 L 39.285156 43.085938 L 39.285156 61.476562 L 75.652344 25.152344 L 93.683594 43.160156 " fill-opacity="1" fill-rule="nonzero"/></g></svg>