<svg xmlns="http://www.w3.org/2000/svg" xmlns:xlink="http://www.w3.org/1999/xlink" width="500" zoomAndPan="magnify" viewBox="0 0 375 374.999991" height="500" preserveAspectRatio="xMidYMid meet" version="1.0"><path fill="#ffdcca" d="M 274.179688 141.613281 C 270.625 152.496094 259.886719 160.402344 246.605469 162.070312 C 242.253906 178.03125 236.085938 195.878906 225.707031 208.792969 C 226.507812 214.523438 226.144531 223.230469 227.378906 229.542969 C 229.191406 238.828125 232.457031 245.71875 231.875 252.828125 C 231.441406 258.195312 223.605469 266.105469 220.410156 270.023438 C 205.609375 287.941406 182.605469 300.492188 162.507812 282.355469 C 159.3125 279.527344 156.410156 276.40625 153.726562 273.070312 C 150.171875 268.714844 145.308594 262.550781 144.367188 256.746094 C 143.859375 253.410156 146.90625 248.765625 147.921875 245.71875 C 150.242188 238.972656 151.984375 232.152344 152.710938 225.042969 C 153.292969 219.3125 153.292969 213.582031 152.929688 207.847656 C 151.550781 206.398438 150.171875 204.949219 148.9375 203.496094 C 140.375 193.265625 134.570312 182.023438 131.015625 170.269531 C 111.640625 164.320312 95.460938 135.230469 106.488281 116.730469 C 111.566406 108.316406 122.960938 115.496094 127.386719 122.242188 C 128.476562 112.160156 130.507812 102.074219 133.265625 92.136719 C 137.328125 77.335938 145.238281 64.132812 154.960938 52.378906 C 156.558594 50.421875 161.417969 42.660156 164.464844 42.296875 L 175.132812 34.027344 C 202.777344 29.3125 197.917969 74.433594 208.367188 89.164062 C 214.460938 97.796875 226.289062 101.929688 235.796875 105.414062 C 240.800781 107.300781 247.914062 108.894531 250.816406 113.828125 C 251.394531 114.769531 251.832031 115.785156 252.195312 116.875 C 252.410156 116.585938 252.628906 116.367188 252.773438 116.148438 C 257.199219 110.707031 265.183594 106.71875 271.058594 112.59375 C 275.777344 117.238281 276.066406 136.027344 274.179688 141.613281 Z M 274.179688 141.613281 " fill-opacity="1" fill-rule="evenodd"/><path fill="#ffc000" d="M 379.324219 374.925781 L -1.558594 373.835938 C -1.558594 373.835938 -6.710938 332.339844 15.132812 290.988281 C 21.300781 279.308594 101.988281 260.738281 145.746094 245.5 C 149.589844 244.125 189.71875 288.015625 189.71875 288.015625 L 231.296875 244.050781 C 231.296875 244.050781 353.636719 287.070312 366.625 304.121094 C 381.789062 323.996094 379.324219 374.925781 379.324219 374.925781 Z M 113.816406 113.828125 C 117.882812 114.046875 119.621094 122.097656 121.800781 125.144531 C 122.453125 126.015625 124.558594 130.515625 126.152344 130.152344 C 127.894531 129.714844 128.257812 125.144531 128.476562 123.914062 C 129.925781 117.019531 131.230469 110.199219 133.480469 103.453125 C 141.027344 81.035156 161.417969 65.292969 167.367188 42.585938 C 211.195312 31.488281 193.78125 72.695312 198.789062 88.871094 C 202.5625 100.914062 215.839844 114.84375 221.28125 118.761719 C 223.96875 120.648438 221.574219 108.675781 224.113281 110.5625 C 226.578125 112.378906 230.207031 116.148438 233.472656 116.585938 C 235.867188 116.875 238.261719 110.347656 239.421875 107.371094 C 239.929688 110.925781 240.003906 114.554688 239.640625 118.109375 C 239.566406 118.90625 238.335938 122.097656 238.769531 122.898438 C 239.058594 123.332031 241.601562 120.9375 241.816406 120.792969 C 243.921875 118.90625 245.953125 116.800781 247.550781 114.480469 C 248.785156 116.441406 250.164062 118.253906 251.542969 119.34375 C 251.976562 119.703125 255.75 123.042969 256.476562 122.460938 C 256.910156 122.027344 255.75 116.875 255.675781 116.367188 C 255.605469 115.859375 255.605469 115.351562 255.53125 114.917969 C 256.765625 114.117188 258.726562 111.871094 260.539062 111.214844 C 261.84375 110.78125 263.222656 110.492188 264.601562 110.925781 C 265.328125 111.144531 269.972656 114.84375 270.550781 112.738281 C 271.785156 108.242188 288.402344 79.511719 274.761719 54.847656 C 258.578125 25.320312 211.558594 0.0742188 196.101562 0.363281 C 182.679688 0.582031 170.199219 4.5 159.3125 22.347656 C 159.167969 22.636719 159.023438 23 158.878906 23.363281 C 151.621094 20.96875 142.480469 23.796875 135.949219 26.625 C 108.738281 38.667969 96.621094 68.921875 93.644531 98.15625 C 91.832031 115.570312 103.949219 128.699219 103.949219 128.699219 C 103.949219 128.699219 110.769531 113.683594 113.816406 113.828125 Z M 186.089844 131.601562 C 182.75 132.253906 175.058594 149.304688 177.816406 154.019531 C 179.339844 156.558594 186.015625 163.085938 189.5 162 C 193.054688 160.910156 197.628906 151.40625 197.699219 150.175781 C 197.773438 148.289062 189.425781 130.949219 186.089844 131.601562 Z M 186.089844 131.601562 " fill-opacity="1" fill-rule="evenodd"/><path fill="#000000" d="M 318.660156 309.125 C 318.445312 308.835938 317.9375 308.761719 317.644531 309.054688 C 312.347656 313.550781 308.285156 318.484375 305.09375 323.851562 C 302.117188 328.785156 299.796875 334.082031 297.691406 339.667969 C 296.386719 343.222656 295.152344 346.851562 293.84375 350.621094 C 292.972656 353.089844 292.175781 355.628906 291.449219 358.167969 C 290.726562 360.707031 290.070312 363.246094 289.5625 365.855469 C 289.417969 366.726562 289.199219 367.527344 289.128906 368.398438 C 288.984375 369.265625 288.839844 370.136719 288.765625 370.9375 C 288.691406 371.296875 288.910156 372.242188 288.910156 372.820312 C 288.691406 372.96875 288.621094 373.328125 288.691406 373.621094 C 288.839844 373.984375 288.984375 374.128906 289.054688 374.128906 C 289.347656 374.273438 290.070312 374.417969 290.21875 373.546875 C 290.289062 373.183594 290.21875 371.734375 290.289062 371.152344 C 290.363281 370.355469 290.507812 369.484375 290.652344 368.6875 C 290.796875 367.890625 290.941406 367.019531 291.160156 366.21875 C 291.597656 364.1875 292.105469 362.15625 292.683594 360.199219 C 293.554688 357.222656 294.5 354.175781 295.515625 351.273438 C 296.820312 347.574219 298.054688 343.949219 299.359375 340.394531 C 301.390625 334.878906 303.640625 329.65625 306.472656 324.796875 C 309.589844 319.570312 313.363281 314.640625 318.515625 310.214844 C 318.804688 309.921875 318.878906 309.414062 318.660156 309.125 Z M 288.839844 373.328125 C 288.691406 373.328125 288.910156 373.113281 288.984375 373.039062 C 288.910156 373.183594 288.910156 373.328125 288.839844 373.328125 Z M 122.015625 137.042969 C 120.636719 135.664062 119.1875 134.359375 117.589844 133.199219 C 116.863281 132.691406 116.140625 132.183594 115.339844 131.746094 C 114.542969 131.3125 113.746094 130.949219 112.945312 130.585938 C 112.65625 130.441406 111.785156 130.441406 111.207031 130.367188 C 111.058594 130.152344 110.84375 130.078125 110.625 130.078125 C 110.117188 130.078125 109.898438 130.367188 109.898438 130.441406 C 109.828125 130.585938 109.609375 131.382812 110.40625 131.601562 C 110.480469 131.601562 110.550781 131.601562 110.625 131.675781 C 110.625 131.675781 110.625 131.601562 110.625 131.601562 C 110.695312 131.601562 110.84375 131.601562 110.914062 131.53125 C 110.84375 131.601562 110.769531 131.675781 110.695312 131.675781 C 111.207031 131.746094 112.003906 131.964844 112.292969 132.109375 C 113.019531 132.472656 113.816406 132.90625 114.46875 133.34375 C 115.195312 133.777344 115.847656 134.214844 116.574219 134.722656 C 116.792969 134.867188 116.9375 135.011719 117.082031 135.15625 C 117.011719 135.300781 116.9375 135.449219 117.011719 135.664062 C 117.011719 135.882812 117.15625 136.027344 117.371094 136.171875 C 117.371094 136.316406 117.300781 136.535156 117.300781 136.679688 C 117.226562 137.117188 117.15625 137.550781 117.226562 137.914062 C 117.371094 138.710938 117.445312 139.4375 117.589844 140.234375 C 117.734375 140.960938 117.878906 141.757812 118.027344 142.484375 C 118.242188 143.71875 118.460938 145.023438 118.75 146.257812 C 119.113281 148.144531 119.476562 150.03125 119.839844 151.914062 C 120.128906 153.292969 120.421875 154.601562 120.710938 155.976562 C 120.785156 156.339844 121.144531 156.632812 121.507812 156.558594 C 121.871094 156.484375 122.160156 156.125 122.089844 155.761719 C 121.507812 152.640625 121.144531 149.449219 120.566406 146.257812 C 120.347656 144.878906 120.058594 143.574219 119.765625 142.195312 L 118.824219 137.695312 C 118.75 137.480469 118.824219 137.117188 118.898438 136.753906 C 118.898438 136.753906 118.898438 136.679688 118.898438 136.679688 C 119.550781 137.261719 120.277344 137.914062 120.855469 138.496094 C 122.886719 140.453125 124.773438 142.558594 126.734375 144.660156 C 126.953125 144.949219 127.460938 144.949219 127.675781 144.734375 C 127.96875 144.441406 127.96875 144.007812 127.75 143.71875 C 125.863281 141.324219 124.046875 139.074219 122.015625 137.042969 Z M 110.769531 130.152344 C 110.769531 130.078125 110.914062 130.222656 110.914062 130.222656 C 110.988281 130.296875 110.988281 130.296875 111.058594 130.367188 C 110.84375 130.296875 110.695312 130.222656 110.769531 130.152344 Z M 110.625 131.601562 L 110.695312 131.601562 C 110.625 131.675781 110.625 131.675781 110.625 131.601562 Z M 252.917969 137.117188 C 252.917969 137.1875 252.917969 137.261719 252.917969 137.261719 C 252.847656 137.1875 252.847656 137.117188 252.917969 137.117188 Z M 269.390625 121.445312 C 269.535156 121.808594 269.464844 122.242188 269.101562 122.390625 C 266.632812 123.765625 264.3125 125.363281 262.207031 127.175781 C 261.84375 127.46875 261.554688 127.757812 261.191406 128.121094 C 261.265625 128.191406 261.335938 128.410156 261.335938 128.628906 C 261.335938 128.773438 261.191406 129.351562 261.121094 129.570312 L 260.828125 131.023438 L 260.175781 135.011719 C 259.957031 136.101562 259.8125 137.261719 259.59375 138.347656 C 259.378906 139.4375 259.234375 140.597656 259.015625 141.6875 C 258.578125 143.933594 258.144531 146.113281 257.636719 148.289062 C 257.5625 148.652344 257.199219 148.941406 256.839844 148.867188 C 256.476562 148.796875 256.183594 148.433594 256.257812 148.070312 C 256.839844 144.949219 257.199219 141.832031 257.710938 138.785156 C 257.925781 137.480469 258.21875 136.101562 258.433594 134.792969 L 259.234375 130.804688 L 259.449219 129.789062 C 259.304688 129.933594 259.160156 130.078125 259.015625 130.152344 C 258 131.167969 257.054688 132.183594 256.113281 133.199219 C 255.894531 133.417969 253.5 135.957031 252.847656 137.117188 C 252.847656 137.117188 252.847656 137.117188 252.847656 137.1875 C 252.847656 137.117188 252.773438 137.042969 252.703125 136.972656 C 252.773438 137.042969 252.773438 137.117188 252.773438 137.1875 C 252.773438 137.1875 252.703125 137.261719 252.773438 137.261719 C 252.773438 137.480469 252.703125 137.695312 252.484375 137.914062 C 252.195312 138.132812 251.6875 138.132812 251.46875 137.839844 C 251.324219 137.695312 251.25 137.40625 251.324219 136.972656 C 251.394531 136.679688 251.542969 136.316406 251.832031 135.882812 C 252.703125 134.503906 254.589844 132.328125 254.804688 132.109375 C 255.75 131.023438 256.691406 129.933594 257.710938 128.917969 C 258.726562 127.902344 259.8125 126.886719 260.972656 126.015625 C 263.222656 124.203125 265.691406 122.605469 268.375 121.300781 C 268.8125 120.9375 269.246094 121.082031 269.390625 121.445312 Z M 123.6875 73.128906 C 125.355469 66.308594 127.96875 59.492188 131.59375 53.25 C 133.410156 50.132812 135.441406 47.15625 137.761719 44.472656 C 140.085938 41.714844 142.699219 39.25 145.527344 37 C 145.960938 36.636719 146.324219 36.347656 146.761719 36.128906 C 147.195312 35.839844 147.558594 35.550781 147.996094 35.257812 C 149.734375 34.097656 154.015625 31.558594 157.28125 31.488281 C 159.097656 31.414062 160.621094 32.066406 161.347656 33.808594 C 161.492188 34.171875 161.347656 34.605469 160.984375 34.75 C 160.621094 34.898438 160.183594 34.75 160.039062 34.390625 C 159.386719 32.867188 157.789062 32.792969 156.121094 33.15625 C 153.363281 33.808594 150.316406 35.695312 148.9375 36.636719 C 148.503906 36.929688 148.140625 37.21875 147.777344 37.4375 C 147.414062 37.726562 147.050781 38.015625 146.617188 38.304688 C 143.859375 40.484375 141.390625 42.949219 139.140625 45.5625 C 136.890625 48.246094 134.859375 51.074219 133.117188 54.050781 C 129.492188 60.070312 126.878906 66.746094 125.136719 73.417969 C 125.066406 73.78125 124.628906 74 124.265625 73.925781 C 123.902344 73.855469 123.613281 73.492188 123.6875 73.128906 Z M 156.917969 40.992188 C 156.046875 41.714844 155.25 42.441406 154.523438 43.167969 C 153.4375 44.253906 152.421875 45.417969 151.40625 46.578125 C 150.460938 47.808594 149.519531 49.042969 148.71875 50.277344 C 147.050781 52.816406 145.601562 55.5 144.292969 58.328125 C 144.148438 58.691406 144.292969 59.128906 144.65625 59.273438 C 145.019531 59.417969 145.453125 59.273438 145.601562 58.910156 C 146.976562 56.226562 148.503906 53.6875 150.171875 51.21875 C 151.042969 49.988281 151.914062 48.824219 152.855469 47.664062 C 153.800781 46.503906 154.742188 45.417969 155.832031 44.328125 C 156.558594 43.601562 157.28125 42.878906 158.082031 42.152344 C 158.878906 41.5 159.675781 40.847656 160.546875 40.339844 C 160.546875 40.339844 161.78125 39.613281 162.433594 39.46875 C 162.507812 39.539062 162.507812 39.539062 162.578125 39.613281 C 162.941406 39.832031 163.378906 39.757812 163.59375 39.394531 C 163.886719 38.960938 163.742188 38.597656 163.523438 38.378906 C 163.378906 38.234375 163.160156 38.089844 162.796875 38.089844 C 162.070312 38.089844 159.75 38.886719 159.675781 38.960938 C 158.734375 39.613281 157.789062 40.265625 156.917969 40.992188 Z M 162.796875 39.683594 C 162.796875 39.828125 162.578125 39.683594 162.507812 39.539062 C 162.652344 39.539062 162.796875 39.539062 162.796875 39.683594 Z M 167.660156 43.53125 C 167.949219 43.3125 168.023438 42.878906 167.875 42.585938 C 167.875 42.585938 167.804688 42.585938 167.875 42.515625 C 167.875 42.441406 167.949219 42.371094 167.949219 42.222656 C 168.09375 41.714844 168.457031 41.136719 168.890625 40.484375 C 169.910156 38.886719 171.359375 37.21875 171.648438 36.855469 C 173.898438 34.027344 177.453125 30.6875 181.300781 29.09375 C 183.769531 28.078125 186.453125 27.789062 188.917969 29.019531 C 192.039062 30.542969 193.707031 32.9375 194.726562 36.058594 C 195.449219 38.378906 195.8125 40.992188 196.03125 43.894531 C 195.085938 41.863281 193.925781 39.828125 192.402344 38.160156 C 190.371094 35.914062 187.832031 34.535156 184.929688 34.75 C 183.332031 34.898438 181.808594 35.332031 180.429688 36.058594 C 179.050781 36.710938 177.746094 37.582031 176.585938 38.523438 C 176.511719 38.597656 174.769531 40.265625 174.1875 40.917969 C 173.972656 41.207031 173.898438 41.5 173.898438 41.570312 C 173.898438 42.007812 174.042969 42.222656 174.335938 42.296875 C 174.699219 42.441406 175.132812 42.296875 175.277344 41.863281 C 175.277344 41.863281 175.277344 41.789062 175.351562 41.789062 C 175.351562 41.714844 175.351562 41.714844 175.351562 41.644531 C 175.351562 41.644531 175.351562 41.714844 175.351562 41.714844 C 175.859375 41.0625 177.453125 39.683594 177.527344 39.613281 C 178.617188 38.8125 179.847656 38.015625 181.15625 37.4375 C 182.390625 36.855469 183.769531 36.492188 185.144531 36.347656 C 187.539062 36.128906 189.5 37.363281 191.167969 39.175781 C 192.691406 40.773438 193.925781 42.878906 194.871094 44.910156 C 194.363281 44.183594 193.707031 43.53125 193.128906 43.023438 C 192.332031 42.371094 191.53125 41.789062 190.734375 41.5 C 190.371094 41.355469 187.46875 40.339844 186.308594 39.902344 C 186.234375 39.902344 186.089844 39.832031 186.015625 39.832031 C 186.015625 39.832031 186.015625 39.832031 185.945312 39.757812 C 185.871094 39.757812 185.871094 39.757812 185.871094 39.683594 C 185.582031 39.539062 185.21875 39.539062 185 39.757812 C 184.710938 40.046875 184.710938 40.484375 185 40.773438 C 185.074219 40.847656 185.507812 41.136719 186.164062 41.425781 C 187.46875 42.007812 189.644531 42.878906 190.007812 43.023438 C 190.660156 43.3125 191.242188 43.746094 191.894531 44.253906 C 192.476562 44.761719 193.054688 45.34375 193.5625 45.996094 C 194.652344 47.300781 195.59375 48.824219 196.03125 50.132812 C 196.101562 50.347656 196.25 50.496094 196.394531 50.566406 C 196.394531 50.566406 196.394531 50.640625 196.394531 50.640625 C 196.394531 51.003906 196.757812 51.363281 197.121094 51.292969 C 197.480469 51.292969 197.773438 50.929688 197.773438 50.566406 C 197.773438 49.988281 197.699219 49.332031 197.699219 48.753906 C 197.480469 43.601562 197.335938 39.03125 196.25 35.332031 C 195.160156 31.703125 193.199219 28.949219 189.644531 27.132812 C 186.671875 25.683594 183.476562 25.902344 180.574219 27.207031 C 176.4375 28.949219 172.738281 32.574219 170.34375 35.621094 C 169.980469 36.128906 167.660156 38.960938 166.789062 40.917969 C 166.570312 41.425781 166.425781 41.863281 166.425781 42.222656 C 166.425781 42.585938 166.496094 42.949219 166.644531 43.167969 C 166.859375 43.675781 167.296875 43.746094 167.660156 43.53125 Z M 174.988281 41.136719 C 175.132812 41.207031 175.277344 41.355469 175.277344 41.5 C 175.277344 41.28125 175.132812 41.207031 174.988281 41.136719 Z M 167.804688 42.515625 C 167.804688 42.515625 167.875 42.585938 167.804688 42.515625 C 167.875 42.585938 167.804688 42.515625 167.804688 42.515625 Z M 175.351562 41.863281 C 175.351562 41.933594 175.351562 42.007812 175.277344 41.933594 C 175.351562 41.933594 175.351562 41.933594 175.351562 41.863281 C 175.351562 41.933594 175.351562 41.863281 175.351562 41.863281 Z M 186.015625 40.046875 C 186.015625 40.046875 185.945312 39.976562 185.945312 39.976562 C 186.015625 39.902344 186.015625 39.976562 186.015625 40.046875 Z M 168.890625 23.871094 C 168.746094 23.507812 168.675781 23.070312 168.820312 22.636719 C 169.109375 21.476562 170.5625 19.953125 170.996094 19.589844 C 172.375 18.285156 174.042969 17.269531 175.714844 16.324219 C 177.382812 15.453125 179.195312 14.730469 180.9375 14.074219 C 186.164062 12.261719 191.894531 11.390625 197.335938 12.042969 C 202.851562 12.699219 208.074219 14.945312 212.210938 19.226562 C 214.96875 22.054688 216.710938 25.464844 217.800781 29.019531 C 219.394531 34.242188 219.6875 40.046875 219.976562 45.488281 C 220.195312 50.277344 220.558594 54.992188 221.210938 59.707031 C 221.863281 64.421875 222.734375 69.066406 224.113281 73.636719 C 225.128906 76.972656 226.289062 80.3125 227.957031 83.285156 C 229.046875 85.246094 230.425781 87.132812 232.09375 88.726562 C 232.382812 89.015625 232.382812 89.453125 232.09375 89.742188 C 231.804688 90.03125 231.367188 90.03125 231.078125 89.742188 C 229.265625 88 227.8125 86.113281 226.652344 84.011719 C 224.910156 80.964844 223.605469 77.554688 222.589844 74.074219 C 221.425781 70.371094 220.628906 66.601562 219.976562 62.828125 C 219.03125 57.167969 218.523438 51.4375 218.164062 45.632812 C 217.871094 40.339844 217.582031 34.679688 215.984375 29.601562 C 214.96875 26.265625 213.375 23.144531 210.832031 20.53125 C 206.988281 16.542969 202.125 14.4375 196.972656 13.785156 C 191.75 13.132812 186.308594 13.929688 181.300781 15.597656 C 179.632812 16.179688 177.890625 16.832031 176.222656 17.703125 C 174.625 18.5 173.101562 19.515625 171.792969 20.675781 C 171.578125 20.894531 170.851562 21.621094 170.34375 22.347656 C 170.199219 22.5625 170.054688 22.78125 169.980469 23 C 169.980469 23.070312 169.980469 23.070312 169.980469 23.144531 C 169.980469 23.144531 170.054688 23.214844 170.125 23.214844 C 170.488281 23.363281 170.707031 23.722656 170.632812 24.085938 C 170.488281 24.449219 170.125 24.667969 169.761719 24.59375 C 169.398438 24.523438 169.109375 24.160156 168.890625 23.871094 Z M 238.84375 38.378906 C 238.625 38.089844 238.699219 37.582031 238.988281 37.363281 C 239.351562 37.144531 239.785156 37.21875 240.003906 37.507812 C 240.367188 37.945312 240.585938 38.597656 240.730469 39.25 C 241.019531 40.554688 241.019531 42.152344 241.09375 43.09375 C 241.238281 44.980469 241.382812 46.941406 241.382812 48.824219 C 241.382812 51.65625 241.308594 54.558594 241.238281 57.386719 C 241.164062 60.578125 241.019531 63.84375 241.09375 67.035156 C 241.09375 71.894531 241.382812 76.683594 242.398438 81.328125 C 243.488281 86.40625 245.300781 91.265625 248.566406 95.765625 C 248.785156 96.054688 248.710938 96.488281 248.421875 96.78125 C 248.128906 96.996094 247.695312 96.925781 247.476562 96.632812 C 244.066406 92.0625 242.035156 86.984375 240.800781 81.761719 C 239.714844 77.046875 239.351562 72.113281 239.351562 67.179688 C 239.351562 63.914062 239.421875 60.722656 239.566406 57.460938 C 239.714844 54.628906 239.785156 51.800781 239.785156 48.972656 C 239.785156 47.085938 239.714844 45.199219 239.566406 43.386719 C 239.496094 42.585938 239.566406 41.355469 239.351562 40.191406 C 239.277344 39.46875 239.132812 38.8125 238.84375 38.378906 Z M 256.402344 114.84375 C 256.765625 114.699219 256.910156 114.261719 256.765625 113.902344 C 256.691406 113.828125 256.621094 113.683594 256.546875 113.609375 C 256.621094 113.320312 256.839844 112.886719 256.839844 112.738281 C 256.910156 112.230469 256.910156 111.722656 256.984375 111.214844 C 257.054688 110.707031 257.128906 110.199219 257.199219 109.691406 C 257.417969 108.316406 257.707031 106.9375 258 105.628906 C 258.363281 104.253906 258.726562 102.945312 259.085938 101.640625 C 259.667969 99.609375 260.25 97.648438 260.683594 95.691406 C 261.121094 93.660156 261.480469 91.554688 261.628906 89.523438 C 261.917969 85.460938 261.628906 81.398438 260.320312 77.121094 C 260.175781 76.757812 259.8125 76.539062 259.449219 76.613281 C 259.085938 76.757812 258.871094 77.121094 259.015625 77.480469 C 259.957031 80.746094 260.25 83.867188 260.175781 86.914062 C 260.105469 89.816406 259.59375 92.644531 258.941406 95.472656 C 258.507812 97.359375 258.070312 99.246094 257.492188 101.132812 C 257.128906 102.511719 256.765625 103.890625 256.476562 105.269531 C 256.183594 106.644531 255.894531 108.023438 255.675781 109.476562 C 255.605469 109.984375 255.53125 110.5625 255.460938 111.070312 C 255.386719 111.578125 255.386719 112.160156 255.3125 112.667969 C 255.3125 113.03125 255.097656 113.753906 255.097656 114.117188 C 255.097656 114.410156 255.242188 114.625 255.3125 114.699219 C 255.675781 114.917969 255.96875 115.0625 256.402344 114.84375 Z M 256.621094 113.753906 C 256.765625 113.902344 256.839844 113.972656 256.691406 114.046875 C 256.546875 113.972656 256.546875 113.902344 256.621094 113.753906 Z M 110.335938 99.828125 C 109.828125 96.34375 109.609375 92.789062 109.898438 89.308594 C 110.335938 83.792969 111.929688 78.28125 115.269531 72.695312 C 115.484375 72.332031 115.921875 72.257812 116.210938 72.476562 C 116.574219 72.695312 116.648438 73.128906 116.503906 73.417969 C 113.453125 78.859375 112.074219 84.15625 111.714844 89.453125 C 111.496094 92.789062 111.714844 96.199219 112.148438 99.609375 C 112.800781 104.542969 114.109375 109.476562 115.558594 114.625 C 115.703125 114.988281 115.484375 115.425781 115.050781 115.496094 C 114.6875 115.640625 114.253906 115.351562 114.179688 114.988281 C 112.4375 109.839844 111.058594 104.832031 110.335938 99.828125 Z M 125.28125 85.171875 C 125.28125 85.171875 125.28125 85.246094 125.210938 85.246094 C 125.210938 85.246094 125.28125 85.171875 125.28125 85.171875 Z M 122.308594 101.710938 C 122.160156 98.957031 122.089844 96.273438 122.234375 93.515625 C 122.378906 91.703125 122.597656 89.886719 122.886719 88.074219 C 122.886719 88 123.46875 85.535156 123.832031 84.738281 C 123.976562 84.375 124.195312 84.15625 124.339844 84.082031 C 124.554688 83.9375 124.773438 83.9375 124.992188 84.011719 C 125.355469 84.15625 125.574219 84.589844 125.355469 84.953125 C 125.355469 85.027344 125.28125 85.097656 125.210938 85.171875 C 125.210938 85.171875 125.210938 85.171875 125.210938 85.246094 C 125.136719 85.246094 125.136719 85.316406 125.066406 85.316406 C 125.136719 85.316406 125.136719 85.316406 125.210938 85.246094 C 124.917969 86.042969 124.554688 88.292969 124.554688 88.363281 C 124.339844 89.671875 124.265625 91.046875 124.121094 92.355469 C 124.046875 93.226562 123.976562 94.167969 123.902344 95.039062 C 123.757812 97.289062 123.6875 99.535156 123.6875 101.785156 C 123.6875 102.148438 123.394531 102.511719 123.03125 102.511719 C 122.671875 102.4375 122.308594 102.074219 122.308594 101.710938 Z M 152.929688 207.632812 C 153.582031 208.429688 179.558594 224.246094 188.050781 224.390625 C 198.351562 224.535156 223.242188 210.171875 225.5625 207.996094 C 226.363281 207.269531 205.679688 237.011719 192.910156 238.972656 C 173.535156 241.875 152.929688 207.632812 152.929688 207.632812 Z M 148.9375 96.34375 C 154.378906 92.5 161.273438 89.816406 168.023438 90.539062 C 169.980469 90.757812 173.609375 91.484375 174.335938 93.734375 C 174.699219 94.964844 173.246094 95.472656 172.304688 95.546875 C 169.253906 95.980469 166.0625 95.617188 163.015625 95.765625 C 155.613281 96.054688 148.9375 98.085938 143.277344 102.945312 L 142.988281 102.21875 C 142.625 101.929688 143.929688 100.625 144.074219 100.480469 C 145.527344 98.957031 147.195312 97.578125 148.9375 96.34375 Z M 241.308594 100.769531 C 234.851562 96.273438 226.796875 95.691406 219.105469 96.199219 C 218.089844 96.273438 217.074219 96.34375 216.128906 96.417969 C 216.929688 98.15625 218.015625 99.753906 219.324219 101.132812 C 219.613281 101.421875 219.613281 101.859375 219.324219 102.148438 C 219.03125 102.4375 218.597656 102.4375 218.308594 102.148438 C 216.636719 100.550781 215.332031 98.664062 214.390625 96.5625 C 213.375 96.632812 212.355469 96.707031 211.269531 96.707031 C 210.324219 96.707031 208.875 96.851562 208.222656 96.054688 C 207.496094 95.183594 208.511719 93.734375 209.164062 93.152344 C 210.109375 92.210938 211.269531 91.628906 212.574219 91.265625 C 211.996094 89.015625 211.632812 86.621094 211.414062 84.300781 C 211.125 81.472656 211.050781 78.644531 210.980469 76.105469 C 210.90625 74.21875 210.832031 72.257812 210.832031 70.371094 C 210.832031 69.066406 210.90625 67.761719 211.050781 66.453125 C 211.125 66.09375 211.488281 65.800781 211.847656 65.800781 C 212.210938 65.875 212.503906 66.238281 212.503906 66.601562 C 212.355469 67.832031 212.355469 69.066406 212.429688 70.371094 C 212.503906 72.257812 212.648438 74.21875 212.71875 76.105469 C 212.792969 78.644531 212.9375 81.398438 213.226562 84.230469 C 213.445312 86.476562 213.734375 88.726562 214.242188 90.976562 C 215.1875 90.757812 216.128906 90.6875 217 90.613281 C 224.546875 89.671875 235.578125 95.109375 241.308594 100.769531 Z M 146.253906 121.589844 C 146.253906 121.734375 146.253906 121.808594 146.179688 121.953125 C 146.035156 122.316406 145.601562 122.460938 145.238281 122.316406 C 144.800781 122.171875 144.65625 121.808594 144.65625 121.375 C 144.65625 121.15625 144.875 120.867188 145.09375 120.503906 C 145.453125 120.066406 146.035156 119.558594 146.109375 119.414062 C 147.050781 118.542969 148.140625 117.746094 149.371094 117.09375 C 150.535156 116.441406 151.769531 115.933594 153.074219 115.570312 C 154.308594 115.207031 155.539062 115.0625 156.847656 115.132812 C 158.734375 115.132812 160.546875 115.570312 162.363281 116.222656 C 165.410156 117.308594 168.167969 119.195312 170.125 121.15625 C 170.417969 121.445312 170.417969 121.882812 170.125 122.171875 C 169.835938 122.460938 169.398438 122.460938 169.109375 122.171875 C 167.296875 120.429688 164.683594 118.835938 161.78125 117.890625 C 160.476562 117.457031 159.023438 117.164062 157.644531 117.019531 C 156.265625 116.949219 154.886719 117.019531 153.507812 117.308594 C 152.277344 117.601562 151.1875 118.035156 150.171875 118.617188 C 149.082031 119.195312 148.066406 119.851562 147.125 120.648438 C 147.125 120.71875 146.46875 121.375 146.253906 121.589844 Z M 232.964844 125.4375 C 230.496094 123.332031 227.742188 121.589844 224.621094 120.792969 C 223.167969 120.429688 221.644531 120.285156 219.976562 120.429688 C 218.523438 120.574219 217 120.9375 215.40625 121.589844 C 214.242188 122.097656 212.574219 123.695312 211.195312 124.566406 C 210.6875 124.929688 210.179688 125.144531 209.746094 125.21875 C 209.382812 125.289062 209.019531 125 208.945312 124.636719 C 208.875 124.273438 209.164062 123.839844 209.527344 123.765625 C 209.816406 123.695312 210.109375 123.550781 210.472656 123.257812 C 211.269531 122.75 212.066406 121.953125 212.867188 121.300781 C 213.589844 120.71875 214.242188 120.285156 214.824219 119.996094 C 216.636719 119.195312 218.308594 118.761719 219.902344 118.617188 C 221.789062 118.472656 223.53125 118.617188 225.199219 119.050781 C 228.539062 119.996094 231.515625 122.027344 234.054688 124.347656 C 234.34375 124.566406 234.34375 125.074219 234.125 125.363281 C 233.691406 125.726562 233.253906 125.726562 232.964844 125.4375 Z M 166.933594 171.285156 C 166.789062 170.921875 166.570312 170.851562 166.425781 170.851562 C 166.136719 170.707031 165.410156 170.777344 165.410156 171.648438 C 165.410156 172.011719 165.773438 173.460938 165.917969 174.042969 C 166.136719 174.695312 166.351562 175.421875 166.570312 176.074219 C 166.789062 176.726562 167.078125 177.453125 167.367188 178.105469 C 168.167969 179.773438 169.328125 180.933594 170.707031 181.734375 C 172.738281 182.894531 175.207031 183.183594 177.671875 183.109375 C 180.285156 183.039062 182.898438 182.894531 185.582031 182.675781 C 187.976562 182.457031 190.445312 182.242188 192.910156 182.023438 C 196.609375 181.660156 200.238281 181.296875 203.867188 181.007812 C 206.261719 180.789062 207.929688 179.554688 209.238281 177.886719 C 210.324219 176.4375 211.125 174.695312 211.847656 173.246094 C 212.355469 172.082031 212.867188 170.996094 213.375 170.414062 C 213.664062 170.125 213.589844 169.691406 213.300781 169.398438 C 213.011719 169.109375 212.574219 169.183594 212.285156 169.472656 C 211.703125 170.125 211.125 171.285156 210.472656 172.664062 C 209.816406 174.042969 209.019531 175.636719 208.003906 177.015625 C 206.988281 178.324219 205.609375 179.339844 203.722656 179.410156 C 199.585938 179.628906 195.378906 180.0625 191.167969 180.425781 C 188.410156 180.71875 185.582031 180.933594 182.824219 181.152344 C 181.082031 181.296875 179.339844 181.371094 177.601562 181.441406 C 175.785156 181.515625 173.972656 181.371094 172.375 180.789062 C 170.851562 180.210938 169.546875 179.191406 168.746094 177.523438 C 168.457031 176.871094 168.167969 176.292969 167.949219 175.636719 C 167.730469 174.984375 167.441406 174.332031 167.296875 173.679688 C 167.222656 173.390625 166.859375 172.664062 166.789062 172.15625 C 167.003906 171.792969 167.003906 171.503906 166.933594 171.285156 Z M 166.789062 171.792969 C 166.789062 171.648438 166.789062 171.503906 166.859375 171.503906 C 167.003906 171.503906 166.859375 171.722656 166.789062 171.792969 Z M 249.074219 250.507812 C 247.042969 255.730469 245.011719 260.953125 242.980469 266.175781 C 238.191406 278.292969 233.328125 290.410156 228.464844 302.597656 C 227.59375 304.84375 226.578125 307.09375 225.5625 309.34375 C 224.546875 311.59375 223.386719 313.769531 222.226562 315.945312 C 222.082031 316.164062 220.917969 318.484375 220.265625 319.28125 C 219.832031 319.789062 219.324219 319.863281 219.105469 319.789062 C 218.453125 319.644531 217.65625 319.0625 216.785156 318.339844 C 215.40625 317.03125 213.882812 315.148438 213.082031 314.421875 C 210.6875 312.171875 208.367188 309.851562 206.117188 307.457031 C 202.777344 303.902344 199.515625 300.203125 196.175781 296.574219 C 195.59375 295.921875 193.492188 293.308594 191.460938 291.351562 C 190.589844 290.554688 189.789062 289.828125 189.066406 289.390625 C 188.917969 289.320312 188.703125 289.246094 188.558594 289.175781 C 188.484375 289.175781 188.410156 289.101562 188.339844 289.101562 C 187.613281 289.246094 186.960938 289.902344 186.234375 290.625 C 184.421875 292.511719 182.679688 295.339844 181.519531 296.429688 C 179.632812 298.242188 177.671875 299.984375 175.714844 301.652344 C 171.070312 305.5 166.207031 309.054688 161.78125 313.042969 C 160.839844 313.839844 157.933594 317.03125 155.394531 319.0625 C 154.523438 319.71875 153.726562 320.296875 153 320.589844 C 152.421875 320.878906 151.914062 320.949219 151.476562 320.878906 C 151.257812 320.878906 150.96875 320.734375 150.679688 320.441406 C 150.390625 320.152344 150.097656 319.71875 149.882812 319.0625 C 149.011719 317.105469 148.210938 313.40625 148.066406 312.824219 C 147.195312 310.070312 146.253906 307.3125 145.453125 304.554688 C 143.496094 298.097656 141.609375 291.570312 139.648438 285.113281 C 138.269531 280.46875 136.820312 275.828125 135.367188 271.183594 C 134.425781 268.0625 133.410156 265.015625 132.394531 261.96875 C 132.25 261.605469 130.507812 257.179688 130.144531 255.367188 C 130 254.859375 130.070312 254.496094 130.144531 254.28125 C 130.214844 254.0625 130.363281 253.917969 130.507812 253.84375 C 130.871094 253.625 131.304688 253.699219 131.523438 254.0625 C 131.667969 254.28125 131.667969 254.496094 131.59375 254.714844 C 131.59375 254.789062 131.59375 254.933594 131.667969 255.003906 C 132.03125 256.746094 133.773438 261.097656 133.917969 261.460938 C 134.933594 264.507812 135.949219 267.628906 136.890625 270.746094 C 138.34375 275.390625 139.792969 280.035156 141.246094 284.675781 C 143.277344 291.132812 145.164062 297.664062 147.125 304.121094 C 147.996094 306.875 148.863281 309.632812 149.734375 312.390625 C 149.953125 312.96875 150.898438 317.46875 151.839844 319.0625 C 151.839844 319.0625 151.914062 319.136719 151.914062 319.210938 C 152.058594 319.210938 152.203125 319.136719 152.347656 319.0625 C 152.929688 318.773438 153.652344 318.339844 154.378906 317.757812 C 156.847656 315.726562 159.75 312.609375 160.621094 311.738281 C 165.117188 307.746094 169.980469 304.121094 174.625 300.273438 C 176.585938 298.605469 178.542969 296.9375 180.355469 295.195312 C 181.519531 294.109375 183.1875 291.277344 185 289.390625 C 186.015625 288.375 187.03125 287.578125 187.976562 287.289062 C 188.410156 287.214844 188.992188 287.289062 189.574219 287.578125 C 190.226562 287.867188 190.953125 288.449219 191.820312 289.175781 C 194.144531 291.277344 196.828125 294.617188 197.480469 295.339844 C 200.820312 298.96875 204.011719 302.667969 207.351562 306.222656 C 209.527344 308.617188 211.847656 310.9375 214.242188 313.117188 C 215.042969 313.839844 216.566406 315.726562 217.945312 317.03125 C 218.378906 317.394531 218.742188 317.757812 219.105469 317.976562 C 219.6875 317.105469 220.628906 315.363281 220.703125 315.148438 C 221.863281 313.042969 222.953125 310.867188 224.039062 308.691406 C 225.054688 306.515625 226 304.265625 226.941406 302.015625 C 231.804688 289.828125 236.738281 277.785156 241.601562 265.667969 C 243.703125 260.445312 245.734375 255.296875 247.769531 250.070312 C 247.914062 249.710938 248.277344 249.5625 248.640625 249.636719 C 249.074219 249.78125 249.21875 250.144531 249.074219 250.507812 Z M 47.859375 309.488281 C 47.785156 309.5625 47.714844 309.5625 47.714844 309.488281 C 47.785156 309.414062 47.785156 309.414062 47.859375 309.488281 Z M 74.707031 372.605469 C 74.777344 372.96875 74.5625 373.328125 74.199219 373.476562 C 73.835938 373.546875 73.472656 373.328125 73.328125 372.96875 C 70.425781 361.578125 69.625 350.984375 66.796875 340.757812 C 64.984375 334.152344 62.296875 327.769531 57.582031 321.386719 C 55.621094 318.703125 54.027344 316.671875 52.71875 315 C 50.109375 311.738281 48.730469 310.285156 48.003906 309.707031 C 47.929688 309.632812 47.859375 309.5625 47.785156 309.5625 C 47.859375 309.5625 48.003906 309.488281 48.003906 309.488281 C 47.929688 309.488281 47.859375 309.5625 47.714844 309.5625 C 47.640625 309.488281 47.640625 309.488281 47.640625 309.5625 C 47.421875 309.5625 47.132812 309.34375 47.058594 309.125 C 46.914062 308.761719 47.058594 308.328125 47.496094 308.183594 C 47.640625 308.109375 47.929688 308.039062 48.4375 308.328125 C 48.800781 308.546875 49.453125 309.054688 50.761719 310.429688 C 52.355469 312.101562 54.824219 315.148438 58.886719 320.441406 C 63.820312 327.042969 66.652344 333.574219 68.464844 340.394531 C 71.296875 350.476562 71.949219 361.070312 74.707031 372.605469 Z M 74.707031 372.605469 " fill-opacity="1" fill-rule="nonzero"/></svg>