<svg xmlns="http://www.w3.org/2000/svg" xmlns:xlink="http://www.w3.org/1999/xlink" width="500" zoomAndPan="magnify" viewBox="0 0 375 374.999991" height="500" preserveAspectRatio="xMidYMid meet" version="1.0"><path fill="#c46731" d="M 253.886719 133.492188 C 251.984375 142.9375 244.90625 154.664062 235.394531 159.234375 C 235.316406 163.726562 235.164062 168.21875 234.9375 172.714844 C 234.023438 187.867188 230.828125 202.03125 217.738281 210.484375 C 217.433594 219.320312 218.042969 228.304688 219.109375 236.988281 C 219.335938 238.964844 222.230469 247.722656 221.242188 249.476562 C 216.597656 257.167969 210.054688 264.324219 204.5 271.253906 C 201.988281 274.453125 194.910156 286.636719 189.886719 286.179688 C 185.78125 285.800781 179.464844 278.261719 176.570312 275.824219 C 173.605469 273.386719 170.710938 270.949219 167.972656 268.210938 C 166.296875 266.535156 164.699219 264.859375 163.027344 263.183594 C 160.972656 260.976562 156.40625 258.308594 154.882812 255.871094 C 154.65625 255.566406 156.101562 251.53125 156.179688 251.152344 C 157.015625 246.351562 157.625 241.554688 157.699219 236.683594 C 157.777344 229.828125 157.320312 222.898438 156.328125 216.195312 C 151.460938 213.910156 147.121094 210.410156 143.621094 205.15625 C 139.742188 199.367188 137.609375 192.589844 135.9375 185.964844 C 134.792969 181.621094 131.597656 172.636719 131.597656 172.636719 C 131.597656 172.636719 118.816406 172.636719 113.488281 165.324219 C 108.3125 158.242188 100.171875 141.335938 111.8125 124.964844 C 123 109.277344 126.195312 123.519531 126.195312 123.519531 C 126.195312 123.519531 126.578125 98.539062 129.011719 91.992188 C 130.304688 88.488281 131.828125 85.058594 133.652344 81.710938 C 133.882812 81.253906 136.695312 76.609375 136.695312 76.609375 L 144.230469 64.804688 C 147.121094 61.679688 150.167969 58.789062 153.894531 56.65625 C 169.875 47.363281 187.074219 59.472656 201.835938 65.414062 C 211.042969 69.144531 222.839844 64.804688 230.144531 73.789062 C 232.65625 76.914062 231.816406 81.710938 231.96875 85.441406 C 232.425781 93.589844 233.644531 101.738281 234.023438 109.886719 C 234.175781 112.933594 234.328125 115.980469 234.480469 118.949219 C 235.164062 118.492188 235.699219 118.109375 236.078125 117.882812 C 240.113281 115.445312 245.589844 113.238281 249.929688 116.207031 C 254.875 119.9375 255.027344 127.859375 253.886719 133.492188 Z M 253.886719 133.492188 " fill-opacity="1" fill-rule="evenodd"/><path fill="#f49e09" d="M 246.734375 70.820312 C 244.449219 76.835938 248.40625 83.84375 244.832031 90.085938 C 242.851562 93.589844 237.90625 95.113281 236.839844 98.996094 C 235.164062 105.242188 235.546875 112.09375 234.175781 118.414062 C 234.101562 118.71875 233.035156 124.050781 232.808594 124.050781 C 229.609375 123.671875 226.871094 113.390625 226.261719 111.257812 C 223.292969 100.367188 223.445312 83.082031 215.078125 74.476562 C 212.335938 71.65625 181.289062 64.5 181.289062 64.5 C 181.289062 64.5 175.582031 70.894531 169.039062 73.027344 C 162.191406 75.3125 158.613281 66.859375 158.613281 66.859375 C 158.613281 66.859375 154.730469 78.890625 142.554688 74.703125 C 137.6875 73.027344 126.957031 112.324219 125.96875 126.183594 C 122.164062 120.777344 117.519531 109.734375 117.519531 109.734375 C 117.519531 109.734375 103.671875 104.9375 100.550781 99.453125 C 93.320312 86.660156 108.007812 84.910156 108.007812 84.910156 C 108.007812 84.910156 100.703125 75.390625 101.769531 67.394531 C 102.683594 60.921875 110.140625 56.882812 110.75 56.960938 C 110.902344 56.960938 111.28125 57.1875 111.28125 57.035156 C 108.464844 46.753906 109.835938 35.789062 120.183594 29.621094 C 123.683594 27.488281 131.523438 30.6875 134.792969 28.785156 C 138.523438 26.574219 137.914062 17.664062 148.949219 15.761719 C 151.003906 15.378906 161.277344 17.054688 161.277344 17.054688 C 161.277344 17.054688 167.289062 11.191406 175.507812 9.820312 C 194.378906 6.773438 198.183594 21.015625 198.183594 21.015625 C 198.183594 21.015625 206.097656 16.902344 217.664062 22.460938 C 222.535156 24.824219 224.664062 29.773438 228.699219 31.144531 C 233.261719 32.742188 238.742188 32.058594 242.089844 36.171875 C 245.515625 40.359375 240.722656 43.558594 241.863281 47.515625 C 243.308594 52.46875 250.234375 53.835938 251.296875 59.777344 C 252.441406 64.878906 248.253906 66.785156 246.734375 70.820312 Z M 178.09375 123.59375 C 173.605469 124.050781 165.234375 143.925781 165.84375 146.515625 C 167.289062 152.609375 170.941406 146.746094 173.757812 146.820312 C 177.027344 146.898438 177.257812 149.941406 180.679688 150.019531 C 182.203125 150.09375 185.324219 143.46875 186.691406 145.144531 C 189.203125 148.191406 193.160156 146.058594 192.628906 143.851562 C 191.488281 138.140625 182.582031 123.136719 178.09375 123.59375 Z M 178.09375 123.59375 " fill-opacity="1" fill-rule="evenodd"/><path fill="#000000" d="M 157.929688 346.496094 C 158.234375 348.09375 160.363281 354.035156 159.527344 355.710938 C 158.6875 357.308594 147.808594 356.929688 146.894531 356.929688 C 132.738281 357.234375 118.585938 358.601562 104.507812 359.898438 C 91.34375 361.117188 78.179688 362.5625 64.9375 363.859375 C 46.371094 365.609375 27.117188 368.273438 8.550781 365.609375 C 3.910156 364.925781 -5.753906 363.859375 -8.570312 359.289062 C -12.222656 353.347656 -10.929688 342.914062 -10.703125 336.441406 C -8.875 291.589844 32.519531 285.039062 68.210938 271.941406 C 77.570312 268.515625 86.929688 265.164062 96.367188 261.886719 C 109.074219 257.546875 121.933594 253.285156 134.109375 247.722656 C 138.828125 245.59375 143.546875 243.230469 148.113281 240.792969 C 149.632812 239.957031 151.15625 239.042969 152.675781 238.203125 C 152.753906 238.203125 154.199219 237.597656 154.125 237.671875 L 155.265625 248.027344 C 154.503906 257.699219 150.773438 266.761719 149.710938 276.28125 C 148.113281 290.371094 150.621094 307.277344 152.90625 321.210938 C 154.277344 329.664062 156.253906 338.042969 157.929688 346.496094 Z M 361.410156 282.527344 C 350.679688 275.75 338.734375 271.101562 326.785156 266.914062 C 304.414062 259.070312 241.328125 245.136719 218.804688 237.671875 C 218.804688 238.355469 227.9375 305.523438 224.742188 324.714844 C 223.371094 332.789062 221.847656 340.785156 219.945312 348.703125 C 219.71875 349.847656 217.207031 355.9375 218.042969 357.082031 C 218.882812 358.296875 227.328125 358.070312 228.621094 358.222656 C 239.199219 359.363281 367.191406 355.632812 375.5625 350.757812 C 379.902344 348.246094 381.195312 337.660156 382.109375 333.398438 C 386.976562 311.464844 380.585938 294.632812 361.410156 282.527344 Z M 217.738281 210.410156 C 215.230469 212.160156 210.890625 214.214844 208.226562 215.738281 C 201 219.777344 191.789062 222.136719 183.574219 222.136719 C 177.257812 222.136719 156.027344 216.121094 156.027344 216.121094 L 157.089844 224.421875 C 165.765625 237.59375 175.660156 248.257812 193.390625 242.546875 C 204.652344 238.964844 217.664062 217.796875 217.664062 217.796875 C 217.664062 217.796875 217.890625 210.332031 217.738281 210.410156 Z M 193.238281 190.835938 C 197.953125 187.183594 200.3125 181.242188 202.367188 175.835938 C 202.519531 175.378906 204.421875 171.496094 204.042969 170.960938 C 203.964844 170.886719 163.253906 171.113281 162.875 171.496094 C 164.777344 185.355469 180.070312 200.964844 193.238281 190.835938 Z M 193.238281 190.835938 " fill-opacity="1" fill-rule="evenodd"/><path fill="#fcf3e7" d="M 162.875 171.191406 L 204.042969 170.886719 C 204.042969 170.886719 196.660156 174.617188 194.378906 175.453125 C 187.605469 178.042969 179.921875 178.195312 172.917969 176.367188 C 170.253906 175.683594 162.492188 172.027344 162.875 171.191406 Z M 219.640625 234.550781 L 184.636719 280.46875 L 155.339844 236.300781 C 155.339844 236.300781 132.96875 257.472656 142.328125 304.382812 C 151.6875 351.292969 152.753906 357.234375 152.753906 357.234375 L 219.109375 357.691406 C 219.109375 357.691406 234.863281 282.070312 232.351562 262.574219 C 229.761719 243.003906 219.640625 234.550781 219.640625 234.550781 Z M 341.851562 313.824219 C 341.546875 313.519531 341.09375 313.519531 340.789062 313.824219 C 336.753906 317.9375 333.101562 322.429688 329.980469 327.226562 C 328.382812 329.664062 327.015625 332.101562 325.71875 334.691406 C 324.425781 337.28125 323.363281 339.945312 322.371094 342.609375 C 321.914062 343.980469 321.460938 345.277344 321.078125 346.722656 C 320.699219 348.09375 320.394531 349.464844 320.089844 350.910156 C 320.089844 351.0625 319.710938 352.664062 319.710938 353.273438 C 319.710938 353.804688 320.011719 354.035156 320.242188 354.1875 C 320.621094 354.339844 321.078125 354.1875 321.230469 353.804688 C 321.308594 353.652344 321.308594 353.425781 321.230469 353.273438 C 321.078125 353.273438 321.078125 353.195312 321.078125 352.96875 C 321.078125 352.96875 321.15625 353.042969 321.15625 353.042969 C 321.15625 353.042969 321.15625 353.121094 321.230469 353.121094 C 321.230469 353.042969 321.15625 352.96875 321.078125 352.96875 C 321.15625 352.433594 321.613281 351.445312 321.613281 351.292969 C 321.914062 349.921875 322.21875 348.628906 322.601562 347.257812 C 322.980469 345.960938 323.4375 344.589844 323.894531 343.296875 C 324.882812 340.632812 326.023438 338.117188 327.320312 335.605469 C 328.613281 333.09375 329.980469 330.65625 331.503906 328.292969 C 334.546875 323.574219 337.972656 319.078125 341.851562 314.96875 C 342.234375 314.585938 342.15625 314.128906 341.851562 313.824219 Z M 34.574219 345.277344 C 33.359375 342.152344 31.835938 339.183594 30.011719 336.214844 C 29.097656 334.84375 28.183594 333.550781 27.117188 332.332031 C 26.128906 331.113281 24.988281 329.894531 23.847656 328.75 C 23.238281 328.140625 21.792969 327.457031 21.03125 326.921875 C 21.105469 326.769531 21.105469 326.617188 21.03125 326.464844 C 20.878906 326.085938 20.496094 325.859375 20.117188 325.933594 C 19.738281 326.085938 19.507812 326.238281 19.433594 326.464844 C 19.28125 326.695312 19.28125 326.921875 19.355469 327.152344 C 19.433594 327.378906 19.738281 327.835938 20.195312 328.140625 C 20.953125 328.675781 22.25 329.285156 22.703125 329.816406 C 23.769531 330.960938 24.757812 332.101562 25.75 333.320312 C 26.738281 334.539062 27.574219 335.832031 28.410156 337.128906 C 30.238281 339.945312 31.609375 342.839844 32.824219 345.886719 C 34.652344 350.453125 36.097656 355.175781 37.46875 359.972656 C 37.542969 360.355469 38 360.582031 38.378906 360.507812 C 38.761719 360.429688 38.988281 359.972656 38.914062 359.59375 C 37.695312 354.796875 36.402344 349.921875 34.574219 345.277344 Z M 276.335938 291.285156 C 273.441406 286.789062 270.246094 282.375 266.972656 277.878906 C 264.386719 274.226562 261.648438 270.570312 258.90625 267.066406 C 256.167969 263.488281 253.351562 259.984375 250.386719 256.558594 L 244.527344 249.703125 L 242.167969 246.960938 C 241.9375 246.65625 241.328125 245.972656 241.175781 245.820312 C 240.949219 245.59375 240.722656 245.667969 240.570312 245.667969 C 240.265625 245.667969 240.035156 245.894531 239.882812 246.199219 C 239.882812 246.277344 239.808594 246.503906 239.960938 246.808594 C 240.035156 246.960938 240.113281 247.039062 240.1875 247.113281 C 240.1875 247.113281 240.1875 247.039062 240.1875 247.039062 C 240.265625 246.960938 240.339844 247.039062 240.417969 247.191406 C 240.339844 247.191406 240.265625 247.191406 240.265625 247.191406 C 240.339844 247.191406 240.417969 247.265625 240.492188 247.265625 C 240.722656 247.496094 240.875 247.875 241.023438 248.027344 L 243.382812 250.769531 L 249.242188 257.699219 C 252.136719 261.128906 254.875 264.628906 257.613281 268.210938 C 260.355469 271.789062 262.941406 275.367188 265.527344 279.023438 C 268.722656 283.59375 271.921875 287.933594 274.8125 292.425781 C 277.78125 297.070312 280.441406 301.71875 282.421875 306.589844 C 285.007812 312.988281 286.53125 319.765625 286.300781 327.457031 C 286.226562 329.894531 285.921875 332.253906 285.542969 334.691406 C 284.628906 340.402344 283.257812 345.960938 282.726562 351.671875 C 282.726562 352.054688 282.953125 352.433594 283.410156 352.433594 C 283.792969 352.433594 284.171875 352.207031 284.171875 351.75 C 284.703125 346.113281 286.152344 340.554688 287.0625 334.917969 C 287.445312 332.484375 287.75 330.046875 287.902344 327.53125 C 288.203125 319.535156 286.683594 312.53125 284.019531 305.90625 C 282.042969 300.804688 279.378906 296.003906 276.335938 291.285156 Z M 133.347656 248.636719 C 133.425781 249.019531 133.195312 249.476562 132.816406 249.550781 C 132.589844 249.628906 132.359375 249.550781 132.132812 249.398438 C 132.054688 249.476562 131.980469 249.628906 131.902344 249.703125 C 131.523438 250.238281 131.140625 250.847656 130.914062 251.074219 C 130 252.140625 129.164062 253.285156 128.25 254.425781 C 126.957031 256.101562 125.664062 257.851562 124.445312 259.527344 C 122.390625 262.269531 120.414062 265.011719 118.433594 267.828125 C 115.464844 272.015625 112.574219 276.207031 109.683594 280.46875 C 107.097656 284.277344 104.507812 288.085938 101.996094 291.96875 C 99.484375 295.851562 97.050781 299.738281 94.691406 303.695312 C 93.625 305.523438 92.179688 307.503906 91.039062 309.5625 C 90.277344 310.855469 89.667969 312.226562 89.363281 313.597656 C 88.984375 315.347656 89.136719 317.253906 89.59375 319.308594 C 90.277344 322.429688 91.496094 325.554688 92.332031 327.988281 C 94.539062 334.539062 97.050781 341.011719 100.171875 347.179688 C 102.300781 351.214844 104.660156 355.175781 107.550781 358.753906 C 107.78125 359.058594 107.78125 359.515625 107.476562 359.820312 C 107.171875 360.050781 106.714844 360.050781 106.410156 359.746094 C 103.441406 356.089844 100.933594 352.128906 98.726562 348.019531 C 95.453125 341.851562 92.941406 335.300781 90.660156 328.675781 C 89.820312 326.160156 88.527344 322.964844 87.765625 319.839844 C 87.234375 317.558594 87.082031 315.347656 87.539062 313.367188 C 87.84375 311.84375 88.527344 310.320312 89.363281 308.875 C 90.507812 306.820312 91.953125 304.761719 93.019531 302.933594 C 95.375 298.976562 97.8125 295.015625 100.324219 291.207031 C 102.835938 287.324219 105.421875 283.515625 108.085938 279.707031 C 111.050781 275.519531 113.945312 271.253906 116.988281 267.144531 C 118.964844 264.324219 121.019531 261.585938 123.074219 258.84375 C 124.371094 257.167969 125.664062 255.414062 126.957031 253.742188 C 127.871094 252.597656 128.707031 251.53125 129.621094 250.390625 C 129.847656 250.160156 130.304688 249.398438 130.835938 248.867188 C 131.140625 248.5625 131.445312 248.257812 131.675781 248.105469 C 131.980469 247.953125 132.285156 247.953125 132.511719 248.027344 C 132.96875 247.875 133.273438 248.105469 133.347656 248.636719 Z M 132.511719 249.246094 C 132.511719 249.171875 132.4375 249.246094 132.359375 249.324219 C 132.4375 249.324219 132.511719 249.324219 132.511719 249.246094 Z M 321.308594 353.042969 C 321.308594 353.042969 321.308594 353.121094 321.382812 353.121094 C 321.382812 353.121094 321.308594 353.121094 321.308594 353.042969 Z M 240.265625 247.191406 C 240.265625 247.191406 240.1875 247.113281 240.1875 247.113281 C 240.1875 247.191406 240.1875 247.191406 240.265625 247.191406 Z M 240.265625 247.191406 " fill-opacity="1" fill-rule="nonzero"/><path fill="#000000" d="M 143.925781 131.667969 C 143.773438 132.046875 143.316406 132.199219 142.9375 132.046875 C 142.554688 131.894531 142.40625 131.4375 142.554688 131.058594 C 143.773438 128.238281 146.4375 125.195312 149.558594 123.0625 C 151.613281 121.613281 153.972656 120.546875 156.179688 120.167969 C 160.363281 119.40625 164.242188 120.777344 166.070312 125.953125 C 166.222656 126.335938 165.996094 126.792969 165.613281 126.867188 C 165.234375 127.019531 164.777344 126.792969 164.699219 126.410156 C 163.027344 122.300781 159.90625 121.234375 156.480469 121.917969 C 154.503906 122.300781 152.449219 123.289062 150.546875 124.507812 C 147.730469 126.488281 145.21875 129.152344 143.925781 131.667969 Z M 210.207031 120.320312 C 208.835938 119.175781 207.164062 118.339844 205.414062 117.957031 C 204.117188 117.730469 202.75 117.730469 201.304688 118.035156 C 198.945312 118.644531 196.355469 120.242188 193.84375 123.289062 C 193.542969 123.59375 193.617188 124.050781 193.921875 124.355469 C 194.226562 124.660156 194.683594 124.585938 194.988281 124.28125 C 196.585938 122.527344 198.105469 121.386719 199.554688 120.625 C 201.53125 119.632812 203.359375 119.480469 205.03125 119.785156 C 206.933594 120.167969 208.683594 121.15625 210.054688 122.453125 C 211.726562 123.976562 212.871094 125.800781 213.328125 127.171875 C 213.476562 127.554688 213.859375 127.78125 214.238281 127.628906 C 214.621094 127.476562 214.847656 127.097656 214.695312 126.714844 C 214.164062 124.890625 212.566406 122.222656 210.207031 120.320312 Z M 115.160156 134.40625 C 115.238281 134.484375 115.3125 134.484375 115.390625 134.558594 C 115.3125 134.332031 115.238281 134.179688 115.160156 134.40625 Z M 125.664062 144.382812 C 124.597656 142.554688 123.378906 140.804688 121.859375 139.28125 C 121.171875 138.597656 120.488281 137.910156 119.726562 137.300781 C 118.964844 136.691406 118.207031 136.082031 117.445312 135.550781 C 117.214844 135.398438 116.914062 135.246094 116.683594 135.09375 C 116.378906 134.941406 116.152344 134.789062 115.847656 134.636719 C 115.847656 134.636719 115.617188 134.636719 115.464844 134.558594 C 115.464844 134.558594 115.464844 134.558594 115.390625 134.484375 C 115.238281 134.484375 115.085938 134.40625 115.160156 134.332031 C 115.085938 134.332031 115.007812 134.253906 114.933594 134.253906 C 114.324219 134.101562 114.097656 134.636719 114.019531 134.636719 C 113.945312 134.789062 113.792969 135.246094 114.324219 135.625 C 114.402344 135.703125 115.007812 135.929688 115.085938 136.007812 C 115.3125 136.160156 115.542969 136.234375 115.769531 136.386719 C 116 136.539062 116.226562 136.691406 116.457031 136.84375 C 117.214844 137.378906 117.902344 137.988281 118.585938 138.597656 C 119.195312 139.128906 119.726562 139.664062 120.261719 140.273438 C 120.183594 140.5 120.183594 140.804688 120.335938 141.035156 C 120.488281 141.261719 120.566406 141.792969 120.566406 142.328125 C 120.640625 143.316406 120.640625 144.382812 120.640625 144.917969 C 120.71875 146.058594 120.792969 147.125 120.792969 148.269531 C 120.792969 149.03125 120.867188 149.789062 120.945312 150.476562 C 121.019531 152.378906 121.171875 154.207031 121.324219 156.113281 C 121.324219 156.492188 121.707031 156.796875 122.085938 156.796875 C 122.46875 156.796875 122.773438 156.417969 122.773438 156.035156 C 122.773438 153.75 122.773438 151.542969 122.695312 149.257812 C 122.695312 148.496094 122.621094 147.734375 122.621094 146.972656 C 122.542969 146.210938 122.46875 145.449219 122.390625 144.6875 C 122.316406 144.230469 122.316406 143.394531 122.238281 142.632812 C 122.847656 143.46875 123.457031 144.382812 124.066406 145.296875 C 125.664062 147.886719 127.03125 150.628906 128.402344 153.371094 C 128.554688 153.75 129.011719 153.902344 129.390625 153.675781 C 129.773438 153.523438 129.925781 153.066406 129.695312 152.683594 C 128.402344 149.941406 127.183594 147.050781 125.664062 144.382812 Z M 235.699219 135.625 C 235.773438 135.625 235.699219 135.472656 235.621094 135.398438 C 235.621094 135.472656 235.621094 135.550781 235.699219 135.625 Z M 248.484375 122.757812 C 248.558594 122.375 248.253906 121.996094 247.875 121.917969 C 244.980469 121.386719 242.546875 122.070312 240.570312 123.59375 C 239.578125 124.355469 238.667969 125.269531 237.90625 126.335938 C 237.21875 127.324219 236.613281 128.390625 236.078125 129.535156 C 235.699219 130.296875 235.394531 131.058594 235.089844 131.894531 C 234.785156 132.734375 234.558594 133.492188 234.328125 134.332031 C 234.328125 134.40625 234.101562 135.398438 234.101562 135.777344 C 234.101562 136.160156 234.328125 136.386719 234.480469 136.464844 C 234.632812 136.617188 234.863281 136.617188 235.089844 136.617188 C 235.46875 136.539062 235.773438 136.160156 235.699219 135.703125 C 235.699219 135.703125 235.699219 135.703125 235.621094 135.703125 C 235.546875 135.703125 235.546875 135.625 235.546875 135.472656 C 235.621094 135.167969 235.773438 134.789062 235.851562 134.789062 C 236.003906 134.179688 236.230469 133.644531 236.460938 133.039062 C 236.460938 133.492188 236.535156 133.949219 236.613281 134.332031 C 236.6875 134.863281 236.917969 135.398438 237.066406 135.855469 C 237.523438 136.84375 238.058594 137.757812 238.4375 138.75 C 239.121094 140.425781 239.425781 142.25 239.199219 144.003906 C 238.972656 145.679688 238.285156 147.355469 236.992188 148.648438 C 236.6875 148.953125 236.6875 149.410156 236.992188 149.714844 C 237.296875 150.019531 237.753906 150.019531 238.058594 149.714844 C 239.730469 148.191406 240.644531 146.289062 240.949219 144.230469 C 241.253906 142.25 240.949219 140.121094 240.1875 138.0625 C 239.808594 136.996094 239.199219 136.082031 238.667969 135.09375 C 238.515625 134.710938 238.363281 134.332031 238.285156 133.949219 C 238.058594 133.113281 238.058594 132.125 238.132812 131.132812 C 238.210938 130.21875 238.363281 129.230469 238.667969 128.390625 C 238.894531 128.011719 239.121094 127.707031 239.351562 127.324219 C 240.035156 126.410156 240.722656 125.574219 241.558594 124.964844 C 243.15625 123.671875 245.132812 122.984375 247.570312 123.367188 C 248.027344 123.367188 248.40625 123.136719 248.484375 122.757812 Z M 245.210938 133.492188 C 244.601562 133.113281 243.839844 133.039062 243.15625 133.113281 C 242.851562 133.113281 242.625 133.191406 242.320312 133.265625 C 242.089844 133.339844 241.785156 133.492188 241.558594 133.570312 C 240.949219 133.875 240.492188 134.332031 240.035156 134.710938 C 239.730469 135.015625 239.65625 135.472656 239.960938 135.777344 C 240.265625 136.082031 240.722656 136.160156 241.023438 135.855469 C 241.40625 135.625 241.863281 135.398438 242.320312 135.167969 C 242.625 135.015625 242.925781 134.941406 243.230469 134.863281 C 243.6875 134.710938 244.144531 134.558594 244.601562 134.710938 C 244.980469 134.863281 245.4375 134.710938 245.589844 134.332031 C 245.742188 134.101562 245.589844 133.722656 245.210938 133.492188 Z M 249.777344 129 C 249.777344 128.773438 249.699219 128.621094 249.625 128.390625 C 249.394531 127.78125 249.089844 127.25 248.9375 126.640625 C 248.863281 126.257812 248.484375 125.953125 248.027344 126.03125 C 247.644531 126.105469 247.339844 126.488281 247.417969 126.945312 C 247.417969 127.171875 247.492188 127.324219 247.492188 127.554688 C 247.644531 128.164062 247.875 128.773438 247.949219 129.382812 C 248.027344 129.839844 248.027344 130.296875 248.027344 130.753906 C 248.027344 131.210938 248.027344 131.667969 248.027344 132.125 C 247.949219 133.113281 247.875 134.027344 247.644531 135.015625 C 247.570312 135.398438 247.796875 135.777344 248.179688 135.929688 C 248.558594 136.007812 248.9375 135.777344 249.089844 135.398438 C 249.472656 134.40625 249.699219 133.339844 249.851562 132.277344 C 249.929688 131.742188 249.929688 131.210938 249.929688 130.675781 C 250.003906 130.144531 249.929688 129.609375 249.777344 129 Z M 149.101562 43.480469 C 149.175781 43.480469 149.40625 43.40625 149.632812 43.175781 C 149.710938 43.101562 149.785156 42.949219 149.785156 42.871094 C 149.785156 42.871094 149.785156 42.871094 149.710938 42.871094 C 149.632812 42.871094 149.710938 42.71875 149.785156 42.644531 C 149.785156 42.644531 149.785156 42.644531 149.785156 42.71875 C 149.785156 42.644531 149.785156 42.644531 149.785156 42.566406 C 149.863281 42.339844 150.089844 42.109375 150.089844 41.957031 C 150.242188 41.578125 150.320312 41.273438 150.46875 40.890625 C 150.621094 40.511719 150.773438 40.207031 150.925781 39.824219 C 151.460938 38.757812 152.070312 37.234375 153.058594 36.171875 C 153.589844 35.5625 154.277344 35.105469 155.035156 35.105469 C 155.570312 35.105469 155.949219 35.179688 156.328125 35.484375 C 156.785156 35.789062 157.167969 36.171875 157.472656 36.628906 C 157.777344 37.082031 158.234375 37.769531 158.6875 38.074219 C 159.070312 38.300781 159.527344 38.453125 160.058594 38.378906 C 160.894531 38.226562 161.808594 37.617188 162.644531 36.855469 C 164.09375 35.484375 165.386719 33.429688 166.449219 32.4375 C 167.667969 31.371094 168.960938 30.457031 170.40625 29.925781 C 171.855469 29.390625 173.375 29.085938 174.972656 29.238281 C 176.953125 29.390625 178.320312 30.457031 179.082031 31.90625 C 179.84375 33.429688 179.84375 35.332031 179.234375 37.082031 C 179.082031 37.464844 179.234375 37.921875 179.617188 38.074219 C 179.996094 38.226562 180.453125 38.074219 180.605469 37.691406 C 181.519531 35.5625 181.441406 33.125 180.605469 31.21875 C 179.691406 29.238281 177.867188 27.792969 175.203125 27.488281 C 173.300781 27.335938 171.472656 27.566406 169.800781 28.175781 C 168.125 28.785156 166.601562 29.773438 165.234375 30.992188 C 164.09375 31.980469 162.796875 34.039062 161.351562 35.410156 C 160.820312 35.941406 160.285156 36.324219 159.753906 36.476562 C 159.679688 36.398438 159.527344 36.324219 159.449219 36.171875 C 159.222656 35.941406 159.070312 35.636719 158.917969 35.410156 C 158.308594 34.648438 157.699219 34.039062 156.863281 33.65625 C 156.253906 33.351562 155.644531 33.277344 154.882812 33.277344 C 153.667969 33.351562 152.601562 34.039062 151.765625 34.953125 C 150.699219 36.171875 149.9375 37.84375 149.40625 39.0625 C 149.253906 39.445312 149.101562 39.824219 148.949219 40.207031 C 148.796875 40.585938 148.644531 40.96875 148.566406 41.347656 C 148.492188 41.578125 148.1875 42.1875 148.1875 42.339844 C 148.113281 42.566406 148.1875 42.796875 148.1875 42.871094 C 148.417969 43.40625 148.644531 43.558594 149.101562 43.480469 Z M 149.785156 42.71875 C 149.785156 42.796875 149.785156 42.796875 149.785156 42.871094 C 149.785156 42.871094 149.785156 42.796875 149.785156 42.71875 Z M 140.425781 51.402344 C 139.359375 50.5625 137.914062 50.714844 136.546875 51.25 C 135.097656 51.78125 133.804688 52.773438 133.273438 53.761719 C 132.96875 54.371094 132.816406 55.054688 132.890625 55.664062 C 132.96875 56.273438 133.195312 56.882812 133.730469 57.265625 C 133.882812 57.417969 134.71875 57.796875 135.023438 58.027344 C 135.328125 58.253906 135.480469 58.558594 135.480469 58.710938 C 135.554688 58.941406 135.480469 59.398438 135.023438 59.703125 C 134.71875 59.929688 133.882812 60.234375 133.804688 60.234375 C 133.425781 60.386719 133.042969 60.617188 132.738281 60.84375 C 132.4375 61.070312 132.132812 61.375 131.902344 61.679688 C 131.140625 62.671875 130.609375 63.738281 130.382812 64.957031 C 130.078125 66.175781 130.078125 67.46875 130.230469 68.6875 C 130.304688 69.066406 130 69.449219 129.621094 69.523438 C 129.238281 69.601562 128.859375 69.296875 128.78125 68.917969 C 128.554688 67.546875 128.554688 66.023438 128.78125 64.574219 C 129.085938 63.128906 129.621094 61.757812 130.535156 60.539062 C 130.835938 60.082031 131.292969 59.703125 131.675781 59.398438 C 132.054688 59.09375 132.359375 58.863281 132.816406 58.636719 C 132.664062 58.558594 132.589844 58.558594 132.511719 58.484375 C 131.675781 57.722656 131.140625 56.730469 131.066406 55.664062 C 130.988281 54.675781 131.21875 53.53125 131.75 52.621094 C 132.511719 51.324219 134.1875 50.03125 136.011719 49.34375 C 137.914062 48.660156 139.96875 48.734375 141.414062 49.953125 C 141.71875 50.183594 141.796875 50.714844 141.492188 51.019531 C 141.1875 51.628906 140.730469 51.707031 140.425781 51.402344 Z M 133.730469 59.320312 C 133.730469 59.472656 133.804688 59.777344 133.957031 59.625 C 134.035156 59.472656 133.882812 59.398438 133.730469 59.320312 Z M 155.644531 55.96875 C 155.570312 55.96875 155.570312 55.894531 155.570312 55.894531 C 155.570312 55.894531 155.644531 55.96875 155.644531 55.96875 Z M 184.636719 53.226562 C 182.886719 52.164062 180.910156 51.707031 179.007812 51.707031 C 177.105469 51.78125 175.125 52.316406 173.375 53.226562 C 173.070312 53.378906 172.386719 53.988281 171.777344 54.597656 C 171.777344 54.371094 171.703125 54.140625 171.625 53.914062 C 171.398438 53.152344 170.863281 52.46875 170.253906 52.011719 C 169.648438 51.554688 168.886719 51.25 168.050781 51.171875 C 166.527344 51.097656 165.234375 51.476562 164.167969 52.164062 C 162.722656 53.074219 161.582031 54.597656 160.210938 55.894531 C 159.832031 56.273438 159.375 56.808594 158.839844 57.265625 C 158.613281 57.492188 158.308594 57.644531 158.082031 57.722656 C 158.003906 57.722656 157.929688 57.644531 157.929688 57.570312 C 157.851562 57.417969 157.699219 57.265625 157.625 57.113281 C 157.472656 56.730469 157.320312 56.273438 157.242188 56.046875 C 157.167969 55.894531 156.9375 55.054688 156.710938 54.828125 C 156.40625 54.445312 156.027344 54.445312 155.722656 54.523438 C 155.339844 54.675781 155.1875 55.132812 155.339844 55.511719 C 155.339844 55.589844 155.417969 55.664062 155.492188 55.742188 C 155.570312 55.664062 155.644531 55.816406 155.644531 55.894531 C 155.644531 55.894531 155.570312 55.894531 155.570312 55.816406 C 155.570312 55.816406 155.644531 55.894531 155.644531 55.894531 C 155.722656 56.121094 155.722656 56.503906 155.722656 56.578125 C 155.949219 57.1875 156.253906 58.253906 156.785156 58.789062 C 157.167969 59.246094 157.699219 59.398438 158.308594 59.320312 C 158.765625 59.246094 159.144531 59.015625 159.527344 58.789062 C 160.210938 58.332031 160.820312 57.570312 161.351562 57.113281 C 162.570312 55.894531 163.636719 54.523438 165.003906 53.683594 C 165.765625 53.226562 166.679688 52.925781 167.746094 53 C 168.199219 53 168.582031 53.226562 168.960938 53.457031 C 169.265625 53.683594 169.570312 54.066406 169.648438 54.445312 C 169.722656 54.597656 169.722656 54.75 169.722656 54.980469 C 169.722656 55.132812 169.722656 55.359375 169.722656 55.511719 C 169.722656 55.511719 169.722656 56.121094 169.722656 56.273438 C 169.800781 57.113281 170.558594 57.265625 170.710938 57.1875 C 170.941406 57.1875 171.398438 56.960938 171.855469 56.578125 C 172.539062 55.96875 173.605469 54.828125 173.984375 54.675781 C 175.507812 53.835938 177.105469 53.304688 178.777344 53.226562 C 180.453125 53.152344 182.125 53.53125 183.648438 54.371094 C 184.027344 54.597656 184.484375 54.445312 184.636719 54.140625 C 185.171875 53.914062 185.019531 53.457031 184.636719 53.226562 Z M 139.511719 37.464844 C 139.4375 37.386719 139.4375 37.386719 139.359375 37.3125 C 139.4375 37.386719 139.511719 37.464844 139.511719 37.464844 Z M 124.75 46.753906 C 125.128906 46.984375 125.585938 46.832031 125.738281 46.449219 C 126.042969 45.839844 126.5 45.460938 126.957031 45.15625 C 127.640625 44.699219 128.328125 44.394531 129.085938 44.089844 C 129.925781 43.710938 130.761719 43.253906 131.445312 42.492188 C 132.132812 41.804688 132.4375 40.96875 132.664062 40.128906 C 132.816406 39.519531 132.96875 38.835938 133.273438 38.300781 C 133.5 37.921875 133.804688 37.617188 134.261719 37.386719 C 134.792969 37.082031 135.402344 36.929688 136.089844 36.855469 C 136.773438 36.78125 137.382812 36.855469 138.066406 36.929688 C 138.21875 36.929688 138.449219 37.007812 138.601562 37.082031 C 138.75 37.160156 138.980469 37.160156 139.132812 37.234375 C 139.207031 37.234375 139.285156 37.3125 139.4375 37.3125 C 139.589844 37.3125 139.664062 37.386719 139.664062 37.464844 C 139.664062 37.464844 139.664062 37.539062 139.589844 37.539062 C 139.742188 37.691406 139.96875 37.691406 140.121094 37.691406 C 140.578125 37.617188 140.730469 37.386719 140.804688 37.234375 C 140.882812 37.007812 140.882812 36.78125 140.730469 36.476562 C 140.652344 36.398438 140.578125 36.324219 140.503906 36.246094 C 140.351562 36.171875 139.96875 35.941406 139.816406 35.867188 C 139.589844 35.789062 139.359375 35.636719 139.132812 35.5625 C 138.902344 35.484375 138.675781 35.410156 138.449219 35.332031 C 137.6875 35.179688 136.847656 35.027344 136.011719 35.105469 C 135.175781 35.179688 134.339844 35.332031 133.578125 35.714844 C 132.664062 36.171875 132.132812 36.703125 131.75 37.3125 C 131.371094 37.921875 131.21875 38.53125 130.988281 39.214844 C 130.835938 39.902344 130.6875 40.664062 130.152344 41.273438 C 129.542969 41.957031 128.707031 42.414062 127.945312 42.796875 C 127.335938 43.101562 126.652344 43.480469 126.121094 43.9375 C 125.511719 44.394531 124.976562 45.003906 124.523438 45.839844 C 124.21875 46.144531 124.371094 46.527344 124.75 46.753906 Z M 120.183594 68.765625 Z M 117.0625 85.363281 C 117.445312 85.210938 117.597656 84.832031 117.519531 84.453125 C 117.214844 83.613281 117.214844 82.929688 117.445312 82.394531 C 117.75 81.480469 118.359375 80.796875 118.890625 80.035156 C 119.574219 79.042969 120.109375 78.054688 120.109375 76.683594 C 120.109375 75.847656 119.804688 75.085938 119.347656 74.398438 C 119.042969 73.867188 118.664062 73.410156 118.511719 72.800781 C 118.359375 72.496094 118.359375 72.113281 118.433594 71.65625 C 118.511719 71.351562 118.816406 70.742188 119.195312 70.132812 C 119.5 69.675781 119.804688 69.21875 120.109375 68.992188 C 120.183594 68.917969 120.261719 68.839844 120.261719 68.839844 C 120.566406 69.066406 121.019531 68.992188 121.25 68.613281 C 121.476562 68.308594 121.402344 67.773438 121.097656 67.546875 C 120.414062 67.011719 119.574219 67.164062 118.816406 67.925781 C 117.824219 68.765625 116.914062 70.515625 116.683594 71.125 C 116.457031 71.960938 116.53125 72.648438 116.683594 73.332031 C 116.835938 73.941406 117.140625 74.398438 117.445312 74.933594 C 117.75 75.464844 118.128906 76 118.128906 76.683594 C 118.207031 77.824219 117.597656 78.664062 116.988281 79.5 C 116.457031 80.261719 116 81.023438 115.769531 81.9375 C 115.542969 82.777344 115.542969 83.765625 116.074219 84.984375 C 116.304688 85.289062 116.683594 85.441406 117.0625 85.363281 Z M 211.273438 60.996094 C 212.109375 61.222656 212.871094 61.527344 213.707031 61.910156 C 214.46875 62.367188 215.230469 62.898438 215.914062 63.8125 C 216.140625 64.117188 216.066406 64.574219 215.761719 64.878906 C 215.457031 65.109375 215 65.03125 214.695312 64.726562 C 214.164062 64.042969 213.554688 63.660156 212.945312 63.355469 C 212.03125 62.898438 211.121094 62.746094 210.207031 62.441406 C 209.140625 62.136719 208.152344 61.757812 207.164062 60.996094 C 206.628906 60.539062 206.324219 60.007812 206.019531 59.320312 C 205.867188 58.863281 205.714844 58.40625 205.488281 58.027344 C 205.335938 57.796875 205.183594 57.570312 204.878906 57.417969 C 204.574219 57.265625 204.269531 57.113281 203.890625 57.035156 C 203.511719 56.960938 203.128906 56.882812 202.75 56.882812 C 202.597656 56.882812 201.835938 56.960938 201.457031 56.960938 C 201.152344 56.882812 200.921875 56.730469 200.769531 56.578125 C 200.617188 56.425781 200.464844 56.121094 200.464844 55.742188 C 200.464844 55.359375 200.542969 54.675781 200.617188 54.066406 C 200.695312 53.761719 200.695312 53.378906 200.695312 53.304688 C 200.542969 52.773438 200.3125 52.390625 199.855469 52.164062 C 199.402344 51.859375 198.867188 51.707031 198.335938 51.707031 C 198.183594 51.707031 197.878906 51.859375 197.574219 51.933594 C 197.5 51.933594 197.5 52.011719 197.421875 52.011719 C 197.421875 52.164062 197.347656 52.316406 197.269531 52.390625 C 197.042969 52.695312 196.507812 52.773438 196.203125 52.542969 C 195.898438 52.316406 195.824219 52.011719 195.824219 51.78125 C 195.824219 51.554688 195.898438 51.25 196.128906 51.019531 C 196.355469 50.792969 196.890625 50.488281 197.421875 50.335938 C 197.878906 50.183594 198.257812 50.105469 198.335938 50.105469 C 199.25 50.105469 200.160156 50.335938 200.847656 50.792969 C 201.609375 51.324219 202.214844 52.085938 202.445312 53 C 202.519531 53.226562 202.519531 53.609375 202.445312 54.066406 C 202.445312 54.445312 202.367188 54.828125 202.292969 55.207031 C 202.445312 55.132812 202.671875 55.054688 202.671875 55.054688 C 203.28125 55.054688 203.890625 55.132812 204.5 55.285156 C 204.957031 55.4375 205.335938 55.589844 205.714844 55.816406 C 206.324219 56.199219 206.707031 56.578125 206.933594 57.113281 C 207.238281 57.570312 207.390625 58.179688 207.542969 58.710938 C 207.695312 59.09375 207.769531 59.398438 208.074219 59.625 C 209.21875 60.386719 210.28125 60.691406 211.273438 60.996094 Z M 202.140625 55.285156 C 201.988281 55.132812 201.835938 54.980469 201.835938 55.132812 C 201.835938 55.285156 201.988281 55.285156 202.140625 55.285156 Z M 193.464844 40.585938 C 194.074219 40.511719 194.835938 40.128906 195.214844 39.976562 C 196.28125 39.597656 197.347656 39.214844 198.488281 38.910156 C 199.171875 38.757812 199.855469 38.683594 200.542969 38.757812 C 201.304688 38.835938 201.835938 39.0625 202.214844 39.445312 C 202.824219 40.054688 203.207031 40.816406 203.585938 41.578125 C 204.117188 42.566406 204.652344 43.480469 205.5625 44.167969 C 206.402344 44.777344 207.238281 45.003906 208.074219 45.078125 C 208.761719 45.15625 209.445312 45.15625 210.054688 45.460938 C 210.433594 45.613281 210.816406 45.917969 211.195312 46.449219 C 211.421875 46.832031 211.878906 46.90625 212.183594 46.679688 C 212.566406 46.449219 212.640625 45.992188 212.414062 45.6875 C 211.957031 44.851562 211.347656 44.394531 210.738281 44.015625 C 210.128906 43.710938 209.445312 43.558594 208.761719 43.480469 C 208.074219 43.328125 207.316406 43.253906 206.628906 42.71875 C 205.792969 42.035156 205.414062 41.121094 204.957031 40.207031 C 204.574219 39.367188 204.117188 38.605469 203.511719 38.074219 C 202.824219 37.464844 201.988281 37.007812 200.769531 36.855469 C 199.933594 36.78125 199.019531 36.929688 198.105469 37.160156 C 196.890625 37.464844 195.746094 37.996094 194.683594 38.378906 C 194.453125 38.453125 193.996094 38.683594 193.542969 38.835938 C 193.390625 38.910156 193.238281 38.910156 193.085938 38.988281 C 193.007812 38.988281 192.933594 39.0625 192.933594 38.988281 C 192.550781 38.835938 192.09375 38.988281 191.941406 39.367188 C 191.789062 39.75 191.941406 40.207031 192.324219 40.359375 C 192.550781 40.585938 192.933594 40.664062 193.464844 40.585938 Z M 231.511719 72.570312 C 231.359375 72.265625 231.285156 72.039062 231.285156 71.734375 C 231.285156 71.582031 231.359375 71.503906 231.4375 71.351562 C 231.664062 70.894531 231.894531 70.4375 232.046875 70.058594 C 232.273438 69.296875 232.425781 68.460938 232.351562 67.621094 C 232.273438 66.785156 232.121094 66.023438 231.816406 65.261719 C 231.359375 64.195312 230.601562 63.355469 229.761719 62.746094 C 228.851562 62.136719 227.859375 61.757812 226.71875 61.605469 C 226.492188 61.605469 224.742188 61.757812 224.132812 62.214844 C 223.828125 62.441406 223.675781 62.746094 223.597656 62.976562 C 223.597656 63.203125 223.597656 63.433594 223.75 63.660156 C 223.980469 64.042969 224.4375 64.117188 224.816406 63.964844 C 225.046875 63.8125 225.121094 63.660156 225.199219 63.433594 C 225.273438 63.433594 225.425781 63.355469 225.578125 63.355469 C 226.035156 63.28125 226.492188 63.28125 226.566406 63.28125 C 227.402344 63.355469 228.164062 63.738281 228.773438 64.195312 C 229.382812 64.652344 229.914062 65.261719 230.21875 66.023438 C 230.449219 66.554688 230.601562 67.164062 230.601562 67.773438 C 230.601562 68.382812 230.523438 68.917969 230.371094 69.523438 C 230.21875 69.980469 229.914062 70.4375 229.6875 70.972656 C 229.535156 71.351562 229.535156 71.734375 229.535156 72.039062 C 229.609375 72.496094 229.761719 73.027344 229.992188 73.484375 C 230.371094 74.324219 231.058594 75.085938 231.359375 75.847656 C 231.894531 77.066406 232.273438 78.664062 232.273438 80.1875 C 232.273438 81.710938 231.96875 83.234375 231.207031 84.375 C 230.980469 84.679688 231.058594 85.136719 231.359375 85.363281 C 231.664062 85.59375 232.121094 85.515625 232.351562 85.210938 C 233.339844 83.84375 233.871094 82.089844 233.871094 80.261719 C 233.949219 78.433594 233.566406 76.609375 233.035156 75.160156 C 232.503906 74.246094 231.894531 73.410156 231.511719 72.570312 Z M 218.347656 44.167969 C 218.347656 44.167969 218.273438 44.242188 218.273438 44.242188 C 218.273438 44.320312 218.273438 44.242188 218.347656 44.167969 Z M 216.980469 43.710938 C 216.980469 43.480469 217.054688 43.101562 217.511719 42.871094 C 217.890625 42.644531 219.109375 42.339844 219.1875 42.339844 C 220.175781 42.109375 221.316406 41.882812 222.382812 41.957031 C 223.21875 42.035156 223.980469 42.261719 224.664062 42.644531 C 225.347656 43.023438 225.730469 43.558594 225.957031 44.089844 C 226.261719 44.699219 226.339844 45.382812 226.414062 46.070312 C 226.492188 46.601562 226.492188 47.058594 226.644531 47.59375 C 226.71875 47.746094 226.796875 47.898438 226.871094 48.050781 C 227.328125 48.582031 227.9375 49.039062 228.316406 49.574219 C 228.621094 50.03125 228.851562 50.488281 229.003906 50.945312 C 229.230469 51.554688 229.382812 52.238281 229.457031 52.925781 C 229.535156 53.304688 229.304688 53.683594 228.925781 53.761719 C 228.546875 53.835938 228.164062 53.609375 228.089844 53.226562 C 227.9375 52.621094 227.785156 52.011719 227.554688 51.476562 C 227.402344 51.171875 227.25 50.867188 227.023438 50.5625 C 226.644531 50.105469 226.035156 49.726562 225.578125 49.269531 C 225.273438 48.964844 225.046875 48.582031 224.894531 48.203125 C 224.589844 47.210938 224.589844 46.222656 224.285156 45.308594 C 224.132812 44.925781 223.980469 44.546875 223.523438 44.242188 C 222.992188 43.863281 222.304688 43.785156 221.621094 43.710938 C 220.859375 43.710938 220.023438 43.785156 219.335938 43.9375 C 219.261719 43.9375 218.5 43.9375 218.121094 44.089844 C 218.121094 44.167969 218.042969 44.167969 218.042969 44.242188 C 218.042969 44.242188 218.042969 44.167969 218.042969 44.167969 C 218.042969 44.167969 218.042969 44.089844 218.121094 44.089844 C 217.96875 44.167969 217.890625 44.167969 217.890625 44.320312 C 217.738281 44.394531 217.585938 44.472656 217.433594 44.472656 C 217.359375 44.472656 217.054688 44.167969 216.980469 43.710938 Z M 218.5 43.863281 Z M 180.148438 286.179688 C 176.570312 290.445312 173.605469 293.417969 170.40625 296.15625 C 168.65625 297.605469 166.90625 298.976562 164.929688 300.5 C 163.179688 301.792969 161.351562 303.164062 159.222656 304.609375 C 157.546875 305.828125 149.101562 313.597656 145.675781 316.796875 C 144.992188 317.40625 144.535156 317.863281 144.382812 318.015625 C 144.382812 318.015625 144.308594 318.089844 144.308594 318.089844 C 144.308594 318.089844 144.230469 318.164062 144.230469 318.164062 C 143.773438 318.699219 143.851562 319.078125 144.15625 319.308594 C 144.308594 319.535156 144.6875 319.6875 145.144531 319.308594 C 145.21875 319.308594 145.21875 319.230469 145.296875 319.230469 C 145.296875 319.230469 145.296875 319.230469 145.371094 319.15625 L 145.449219 319.078125 C 145.675781 318.851562 146.132812 318.46875 146.816406 317.863281 C 150.242188 314.738281 158.6875 307.199219 160.363281 306.058594 C 162.492188 304.535156 164.320312 303.164062 166.070312 301.871094 C 168.050781 300.347656 169.875 298.898438 171.625 297.375 C 174.820312 294.558594 177.789062 291.4375 181.367188 287.019531 C 181.59375 286.714844 181.59375 286.257812 181.289062 285.953125 C 180.832031 285.800781 180.375 285.875 180.148438 286.179688 Z M 228.699219 311.84375 C 224.207031 310.015625 219.566406 308.265625 215.078125 306.363281 C 212.03125 305.066406 209.140625 303.773438 206.324219 302.25 C 201.609375 299.738281 197.269531 296.691406 193.769531 292.503906 C 193.542969 292.199219 193.007812 292.121094 192.703125 292.425781 C 192.398438 292.65625 192.324219 293.1875 192.628906 293.492188 C 196.128906 297.910156 200.542969 301.261719 205.488281 303.925781 C 208.378906 305.523438 211.347656 306.820312 214.46875 308.113281 C 219.035156 309.941406 223.675781 311.539062 228.242188 313.292969 C 228.621094 313.445312 229.078125 313.292969 229.230469 312.910156 C 229.230469 312.453125 229.078125 311.996094 228.699219 311.84375 Z M 165.539062 96.558594 C 165.84375 95.492188 168.050781 88.792969 164.929688 89.78125 C 160.285156 91.230469 141.644531 100.140625 139.4375 109.429688 C 139.132812 110.570312 145.90625 104.328125 153.515625 100.0625 C 158.839844 97.015625 165.539062 96.558594 165.539062 96.558594 Z M 201.53125 98.3125 C 207.695312 102.574219 214.542969 111.257812 214.542969 111.257812 C 216.371094 106.230469 201.910156 87.648438 193.921875 89.402344 C 192.703125 89.628906 191.488281 92.90625 192.550781 94.121094 C 193.84375 95.570312 196.355469 94.730469 201.53125 98.3125 Z M 201.53125 98.3125 " fill-opacity="1" fill-rule="evenodd"/><path fill="#f49e09" d="M 161.429688 357.308594 L 172.386719 319.382812 L 165.460938 299.8125 C 165.460938 299.8125 172.691406 294.480469 175.660156 291.207031 C 178.855469 287.628906 184.410156 278.566406 184.410156 278.566406 C 184.410156 278.566406 189.203125 287.398438 191.941406 290.828125 C 194.53125 294.023438 201.074219 299.050781 201.074219 299.050781 L 193.617188 317.710938 L 202.367188 357.539062 Z M 161.429688 357.308594 " fill-opacity="1" fill-rule="evenodd"/></svg>