<svg xmlns="http://www.w3.org/2000/svg" xmlns:xlink="http://www.w3.org/1999/xlink" width="500" zoomAndPan="magnify" viewBox="0 0 375 374.999991" height="500" preserveAspectRatio="xMidYMid meet" version="1.0"><path fill="#ffb800" d="M 339.765625 266.605469 C 330.972656 291.296875 290.660156 277.042969 272.835938 283.429688 C 266.609375 285.613281 265.675781 291.6875 261.007812 295.503906 C 254.703125 300.644531 242.71875 300.800781 235.167969 299.554688 C 224.195312 297.761719 219.839844 287.011719 211.820312 280.546875 L 148.394531 73.910156 L 172.832031 263.101562 C 174 265.359375 169.484375 270.265625 168.628906 272.136719 C 165.050781 280.160156 161.703125 296.28125 150.964844 297.683594 C 142.871094 298.773438 137.03125 290.363281 128.082031 292.699219 C 117.421875 295.582031 109.484375 308.746094 97.1875 306.875 C 89.792969 305.707031 88.390625 295.894531 81.386719 294.414062 C 73.214844 292.699219 66.132812 303.605469 58.351562 296.046875 C 51.425781 289.273438 60.375 279.691406 54.851562 272.136719 C 51.890625 268.007812 46.757812 266.996094 42.785156 264.191406 C 36.871094 259.984375 34.148438 252.273438 33.058594 245.421875 C 30.257812 227.664062 48.3125 220.339844 51.269531 205.308594 C 53.992188 191.289062 41.851562 179.761719 44.5 165.820312 C 48.15625 146.890625 65.042969 138.402344 72.4375 122.203125 C 79.285156 107.089844 74.617188 90.347656 78.898438 74.691406 C 84.035156 55.839844 100.066406 44.15625 117.964844 38.082031 C 120.144531 37.382812 134.230469 33.722656 140.691406 35.746094 C 140.925781 34.890625 141.234375 34.03125 141.46875 33.175781 C 144.425781 24.53125 149.875 16.195312 157.34375 10.820312 C 165.4375 4.980469 174.542969 5.757812 182.40625 11.679688 C 184.660156 13.390625 189.253906 19.390625 192.210938 19.3125 C 200.539062 19.078125 203.652344 6.695312 213.691406 8.019531 C 235.792969 10.898438 233.613281 27.335938 245.363281 36.214844 C 257.816406 45.714844 268.167969 39.09375 277.972656 58.332031 C 283.421875 69.082031 277.972656 81.15625 283.03125 91.046875 C 287.777344 100.316406 300.699219 101.640625 305.835938 110.984375 C 314.316406 126.332031 304.277344 143.855469 307.933594 159.820312 C 311.203125 173.917969 327.546875 179.527344 331.207031 194.40625 C 335.097656 210.136719 324.589844 223.925781 327.234375 235.375 C 330.039062 246.746094 344.589844 252.976562 339.765625 266.605469 Z M 339.765625 266.605469 " fill-opacity="1" fill-rule="evenodd"/><path fill="#ce734c" d="M 250.421875 190.433594 C 246.066406 211.226562 239.292969 226.960938 225.519531 240.671875 C 227.074219 249.550781 230.03125 258.429688 232.210938 266.996094 C 233.066406 270.5 234.078125 273.929688 235.167969 277.355469 C 235.324219 277.824219 236.414062 280.003906 236.101562 280.546875 C 234.625 283.585938 231.199219 286.546875 228.945312 288.960938 C 222.484375 295.816406 214.3125 304.382812 204.664062 306.25 C 196.101562 307.886719 186.140625 305.472656 177.96875 303.058594 C 172.910156 301.578125 162.558594 299.398438 159.289062 294.800781 C 158.355469 293.476562 163.183594 280.78125 163.570312 278.757812 C 165.515625 270.191406 165.75 261.308594 165.128906 252.507812 C 165.050781 251.730469 164.972656 250.949219 164.894531 250.09375 C 153.6875 244.488281 143.960938 235.375 137.109375 223.847656 C 133.917969 218.472656 131.195312 212.785156 128.785156 206.867188 C 127.382812 207.488281 125.824219 207.332031 124.269531 206.710938 C 104.65625 207.488281 89.714844 179.527344 94.230469 162.78125 C 99.445312 143.308594 117.03125 150.554688 117.03125 150.554688 C 117.03125 150.554688 116.71875 143 116.488281 138.792969 C 115.785156 122.980469 128.628906 114.726562 134.074219 99.925781 C 140.066406 83.648438 148.238281 48.363281 153.296875 47.898438 C 164.347656 46.804688 169.175781 60.28125 179.058594 68.070312 C 186.683594 74.066406 191.898438 67.835938 205.828125 71.496094 C 213.457031 73.445312 225.519531 88.945312 230.5 93.382812 C 235.480469 97.824219 252.367188 99.304688 254.003906 102.574219 C 258.90625 112.386719 255.871094 123.683594 256.882812 134.585938 C 256.960938 135.597656 270.269531 128.511719 276.105469 134.039062 C 293.070312 149.929688 271.4375 188.015625 250.421875 190.433594 Z M 250.421875 190.433594 " fill-opacity="1" fill-rule="evenodd"/><path fill="#fcf3e7" d="M 331.75 373.703125 C 331.75 373.703125 70.101562 385.230469 68.234375 380.710938 C 64.734375 372.535156 73.214844 342.003906 76.019531 334.601562 C 91.972656 292.464844 130.808594 293.945312 168.085938 284.910156 C 174.464844 283.351562 188.398438 303.605469 207.851562 301.421875 C 221.707031 299.941406 229.410156 278.679688 241.007812 280.472656 C 271.125 285.066406 291.980469 285.378906 319.53125 311.082031 C 336.03125 326.582031 329.105469 374.015625 331.75 373.703125 Z M 331.75 373.703125 " fill-opacity="1" fill-rule="evenodd"/><path fill="#ffb800" d="M 202.640625 300.566406 C 200.617188 303.292969 174.777344 333.125 160.148438 331.566406 C 142.089844 329.695312 149.40625 304.773438 154.078125 294.570312 C 155.789062 290.90625 157.65625 287.324219 159.992188 283.976562 C 160.222656 283.664062 162.792969 279.847656 162.792969 279.925781 C 162.792969 279.925781 202.714844 300.332031 202.640625 300.566406 Z M 247.464844 293.789062 C 245.910156 290.285156 244.121094 286.859375 241.941406 283.742188 C 241.707031 283.429688 237.660156 277.433594 237.660156 277.511719 L 202.5625 300.488281 C 202.5625 300.488281 235.324219 329.539062 241.785156 328.839844 C 258.828125 327.125 251.902344 303.527344 247.464844 293.789062 Z M 185.050781 188.640625 C 187.695312 189.109375 188.398438 192.769531 191.355469 192.769531 C 193.765625 192.769531 195.246094 190.199219 197.425781 189.496094 C 199.757812 188.71875 201.78125 190.976562 204.273438 189.808594 C 205.363281 189.265625 206.21875 188.40625 206.761719 187.316406 C 209.953125 181.398438 195.789062 168.46875 190.34375 168.933594 C 184.894531 169.324219 172.054688 184.824219 174.234375 189.886719 C 176.179688 194.328125 182.09375 188.09375 185.050781 188.640625 Z M 185.050781 188.640625 " fill-opacity="1" fill-rule="evenodd"/><path fill="#000000" d="M 302.800781 335.617188 C 301.007812 339.199219 299.53125 342.9375 298.285156 346.753906 C 297.664062 348.621094 297.117188 350.570312 296.652344 352.515625 C 296.183594 354.464844 295.71875 356.410156 295.484375 358.359375 C 295.25 359.683594 295.09375 360.929688 295.015625 362.253906 C 294.859375 363.578125 294.78125 364.902344 294.707031 366.148438 L 294.550781 368.796875 C 294.550781 369.183594 294.394531 370.199219 294.316406 370.429688 L 294.316406 370.507812 C 293.925781 373.859375 293.382812 374.871094 292.992188 374.402344 C 292.527344 374.792969 292.292969 373.625 292.757812 370.199219 C 292.757812 369.964844 292.914062 369.03125 292.914062 368.640625 L 292.992188 366.070312 C 292.992188 364.746094 293.070312 363.421875 293.226562 362.019531 C 293.304688 360.695312 293.460938 359.371094 293.617188 357.96875 C 293.925781 355.945312 294.316406 353.917969 294.78125 351.894531 C 295.25 349.867188 295.871094 347.921875 296.574219 345.976562 C 297.894531 342.082031 299.609375 338.339844 301.554688 334.757812 C 301.710938 334.371094 302.175781 334.214844 302.566406 334.449219 C 302.875 334.757812 302.953125 335.226562 302.800781 335.617188 Z M 135.320312 59.734375 C 135.632812 59.503906 135.710938 58.957031 135.476562 58.644531 C 134.855469 57.867188 133.996094 57.554688 132.984375 57.789062 C 132.128906 57.945312 131.117188 58.488281 130.105469 59.191406 C 126.683594 61.527344 122.636719 66.277344 121.933594 67.136719 C 116.488281 73.054688 111.894531 79.675781 108.160156 86.683594 C 104.425781 93.773438 101.699219 101.328125 99.832031 109.117188 C 98.199219 115.972656 97.265625 122.824219 95.628906 129.601562 C 94.539062 134.042969 93.21875 138.402344 91.195312 142.609375 C 87.304688 150.710938 81.699219 156.941406 77.730469 164.496094 C 76.019531 167.6875 74.695312 171.117188 73.839844 175.011719 C 72.515625 181.164062 72.75 186.695312 73.839844 191.988281 C 76.484375 204.453125 83.957031 215.199219 85.667969 228.910156 C 86.914062 238.644531 83.878906 247.679688 83.488281 257.183594 C 83.332031 261.230469 83.566406 265.28125 84.8125 269.566406 C 84.890625 269.957031 85.355469 270.191406 85.746094 270.113281 C 86.136719 270.035156 86.367188 269.566406 86.292969 269.175781 C 85.125 265.125 84.890625 261.15625 85.046875 257.261719 C 85.511719 247.679688 88.625 238.488281 87.378906 228.753906 C 85.667969 214.96875 78.273438 204.140625 75.628906 191.601562 C 74.617188 186.617188 74.382812 181.320312 75.628906 175.398438 C 76.40625 171.660156 77.808594 168.390625 79.363281 165.351562 C 83.332031 157.796875 89.015625 151.566406 92.90625 143.464844 C 95.007812 139.105469 96.332031 134.664062 97.421875 130.070312 C 99.054688 123.292969 99.988281 116.4375 101.542969 109.585938 C 103.335938 101.875 106.058594 94.472656 109.636719 87.542969 C 113.21875 80.609375 117.730469 74.066406 123.023438 68.304688 C 123.648438 67.601562 126.761719 63.941406 129.71875 61.527344 C 130.808594 60.671875 131.820312 59.890625 132.753906 59.578125 C 133.375 59.347656 133.84375 59.269531 134.230469 59.65625 C 134.542969 59.890625 135.007812 59.96875 135.320312 59.734375 Z M 113.53125 251.652344 C 111.660156 249.316406 109.714844 246.824219 108.316406 243.785156 C 106.835938 240.671875 106.058594 236.699219 105.746094 232.492188 C 105.203125 226.261719 105.589844 219.640625 106.136719 214.65625 C 106.214844 214.265625 105.902344 213.875 105.4375 213.796875 C 105.046875 213.71875 104.65625 214.03125 104.578125 214.5 C 103.957031 219.5625 103.492188 226.339844 103.878906 232.648438 C 104.191406 237.085938 105.046875 241.371094 106.601562 244.640625 C 108.160156 247.914062 110.183594 250.40625 112.207031 252.898438 C 114.230469 255.390625 116.332031 257.726562 117.964844 260.53125 C 119.132812 262.632812 120.066406 265.125 120.535156 268.085938 C 120.613281 268.476562 121 268.789062 121.390625 268.710938 C 121.777344 268.632812 122.089844 268.320312 122.011719 267.851562 C 121.625 264.582031 120.691406 262.011719 119.445312 259.675781 C 117.730469 256.714844 115.632812 254.222656 113.53125 251.652344 Z M 63.566406 251.105469 C 63.253906 248.148438 63.800781 245.34375 64.265625 242.226562 C 64.65625 239.5 65.042969 236.542969 65.042969 232.960938 C 65.042969 228.519531 64.03125 223.769531 64.1875 219.09375 C 64.265625 217.226562 64.578125 215.277344 65.199219 213.488281 C 65.355469 213.097656 65.121094 212.628906 64.734375 212.472656 C 64.34375 212.320312 63.878906 212.550781 63.722656 212.941406 C 62.945312 214.890625 62.632812 216.914062 62.476562 219.015625 C 62.164062 223.613281 63.097656 228.441406 63.097656 232.960938 C 63.097656 236.464844 62.710938 239.347656 62.320312 241.917969 C 61.855469 245.265625 61.386719 248.148438 61.777344 251.261719 C 62.164062 254.613281 63.410156 258.195312 66.445312 262.867188 C 66.679688 263.179688 67.144531 263.335938 67.457031 263.101562 C 67.847656 262.867188 67.925781 262.402344 67.691406 262.089844 C 64.96875 257.648438 63.878906 254.222656 63.566406 251.105469 Z M 73.527344 140.972656 C 73.214844 140.660156 72.75 140.660156 72.4375 140.972656 C 71.503906 141.828125 70.726562 143.074219 70.027344 144.476562 C 68.625 147.28125 67.613281 150.785156 66.523438 153.125 C 64.578125 157.5625 62.007812 162.390625 60.296875 167.300781 C 59.050781 170.726562 58.273438 174.152344 58.117188 177.582031 C 58.039062 179.214844 58.195312 180.929688 58.429688 182.566406 C 58.972656 186.226562 59.984375 189.886719 60.140625 193.625 C 60.140625 194.015625 60.53125 194.40625 60.921875 194.328125 C 61.308594 194.328125 61.699219 193.9375 61.621094 193.546875 C 61.542969 189.730469 60.609375 186.070312 60.140625 182.332031 C 59.984375 180.773438 59.832031 179.214844 59.910156 177.660156 C 60.0625 174.386719 60.921875 171.117188 62.085938 167.921875 C 63.878906 163.015625 66.289062 158.1875 68.15625 153.824219 C 69.167969 151.488281 70.101562 147.984375 71.425781 145.179688 C 71.972656 144.011719 72.671875 142.921875 73.449219 142.140625 C 73.761719 141.753906 73.839844 141.285156 73.527344 140.972656 Z M 280.152344 113.011719 C 276.960938 109.429688 274.859375 104.597656 272.058594 100.550781 C 270.8125 98.679688 269.414062 96.964844 267.699219 95.5625 C 266.222656 94.316406 264.429688 93.851562 262.5625 93.460938 C 260.851562 93.148438 259.21875 92.992188 257.738281 92.292969 C 257.117188 91.980469 256.492188 91.59375 256.027344 90.96875 C 251.125 84.894531 248.398438 78.117188 243.574219 72.429688 C 241.550781 70.09375 239.136719 67.914062 236.101562 66.042969 C 231.589844 63.320312 226.6875 61.449219 221.628906 60.125 C 214.15625 58.101562 206.21875 57.164062 198.746094 55.996094 C 195.632812 55.53125 193.222656 54.207031 191.199219 52.570312 C 188.550781 50.390625 186.527344 47.664062 184.273438 45.015625 C 181.9375 42.367188 179.445312 39.875 176.023438 38.238281 C 174 37.304688 171.742188 36.757812 169.484375 36.679688 C 167.230469 36.601562 164.972656 36.914062 162.871094 37.695312 C 162.402344 37.847656 160.535156 38.550781 159.445312 39.328125 C 158.589844 39.953125 158.277344 40.730469 158.511719 41.511719 C 158.667969 41.898438 159.136719 42.132812 159.523438 41.976562 C 159.914062 41.820312 160.148438 41.433594 159.992188 41.042969 C 159.914062 41.042969 160.148438 40.886719 160.222656 40.730469 C 160.457031 40.496094 160.769531 40.339844 161.160156 40.109375 C 162.09375 39.640625 163.105469 39.328125 163.414062 39.171875 C 165.28125 38.550781 167.382812 38.238281 169.40625 38.316406 C 171.429688 38.394531 173.453125 38.863281 175.246094 39.71875 C 178.433594 41.277344 180.769531 43.613281 182.871094 46.183594 C 185.207031 48.910156 187.308594 51.792969 189.953125 53.972656 C 192.210938 55.839844 194.855469 57.320312 198.4375 57.867188 C 205.828125 59.035156 213.691406 59.96875 221.082031 61.996094 C 225.984375 63.320312 230.734375 65.109375 235.089844 67.679688 C 237.972656 69.394531 240.226562 71.417969 242.097656 73.675781 C 246.921875 79.285156 249.644531 85.984375 254.625 92.058594 C 255.324219 92.839844 256.105469 93.460938 256.960938 93.851562 C 258.515625 94.550781 260.382812 94.785156 262.175781 95.097656 C 263.730469 95.410156 265.367188 95.71875 266.53125 96.808594 C 268.089844 98.132812 269.414062 99.769531 270.578125 101.484375 C 273.382812 105.613281 275.636719 110.441406 278.90625 114.023438 C 279.21875 114.335938 279.683594 114.335938 279.996094 114.101562 C 280.464844 113.789062 280.464844 113.324219 280.152344 113.011719 Z M 172.363281 29.359375 C 172.363281 29.125 172.441406 28.8125 172.753906 28.582031 C 172.910156 28.503906 173.144531 28.425781 173.53125 28.347656 C 174.15625 28.269531 175.167969 28.191406 175.710938 28.113281 C 176.566406 28.035156 177.5 27.957031 178.359375 27.957031 C 179.214844 27.957031 180.148438 28.035156 181.003906 28.191406 C 183.882812 28.582031 186.375 29.515625 188.628906 30.839844 C 190.886719 32.164062 192.832031 33.875 194.855469 35.824219 C 196.957031 37.925781 199.449219 40.265625 202.171875 41.820312 C 203.960938 42.835938 205.828125 43.457031 207.929688 43.457031 C 211.121094 43.457031 213.921875 42.132812 216.957031 41.742188 C 218.359375 41.585938 219.761719 41.585938 221.238281 41.898438 C 223.261719 42.367188 225.050781 43.300781 226.6875 44.3125 C 230.34375 46.652344 233.535156 50.078125 237.582031 51.867188 C 237.972656 52.023438 238.125 52.492188 237.972656 52.882812 C 237.816406 53.269531 237.347656 53.425781 236.960938 53.269531 C 232.835938 51.480469 229.566406 48.128906 225.753906 45.792969 C 224.195312 44.859375 222.5625 44.082031 220.773438 43.613281 C 219.527344 43.300781 218.28125 43.378906 217.113281 43.535156 C 214 44.003906 211.042969 45.328125 207.851562 45.328125 C 205.441406 45.328125 203.261719 44.625 201.160156 43.457031 C 198.203125 41.820312 195.632812 39.328125 193.457031 37.070312 C 191.585938 35.199219 189.71875 33.566406 187.695312 32.320312 C 185.671875 31.074219 183.417969 30.214844 180.769531 29.828125 C 179.992188 29.671875 179.136719 29.59375 178.359375 29.59375 C 177.578125 29.59375 176.722656 29.59375 175.945312 29.671875 C 175.554688 29.75 174.699219 29.75 174.078125 29.828125 C 174.078125 29.828125 174 29.828125 173.921875 29.828125 C 173.6875 30.136719 173.300781 30.292969 172.988281 30.136719 C 172.441406 29.984375 172.441406 29.59375 172.363281 29.359375 Z M 173.609375 29.984375 C 173.609375 30.058594 173.609375 29.984375 173.609375 29.984375 C 173.6875 29.90625 173.6875 29.90625 173.765625 29.90625 C 173.609375 29.90625 173.53125 29.984375 173.609375 29.984375 Z M 311.75 244.796875 C 310.425781 239.734375 309.882812 233.972656 308.324219 228.832031 C 307.625 226.496094 306.691406 224.234375 305.445312 222.210938 C 304.199219 220.183594 302.644531 218.707031 301.007812 217.304688 C 299.453125 215.902344 297.816406 214.65625 296.496094 213.097656 C 295.484375 211.929688 294.628906 210.527344 294.003906 208.734375 C 292.757812 204.917969 292.292969 201.101562 291.980469 197.285156 C 291.59375 193.234375 291.359375 189.265625 290.347656 185.371094 C 289.492188 182.097656 288.167969 178.90625 285.910156 175.945312 C 285.675781 175.632812 285.132812 175.554688 284.820312 175.789062 C 284.511719 176.023438 284.433594 176.566406 284.664062 176.878906 C 286.765625 179.683594 288.011719 182.722656 288.710938 185.757812 C 289.648438 189.574219 289.800781 193.46875 290.113281 197.441406 C 290.425781 201.414062 290.890625 205.386719 292.136719 209.359375 C 292.835938 211.382812 293.847656 213.019531 295.015625 214.421875 C 296.417969 216.058594 298.128906 217.382812 299.765625 218.859375 C 301.242188 220.109375 302.722656 221.507812 303.886719 223.300781 C 305.132812 225.171875 305.988281 227.273438 306.613281 229.453125 C 308.246094 234.59375 308.792969 240.359375 310.191406 245.34375 C 310.269531 245.734375 310.738281 245.964844 311.125 245.886719 C 311.671875 245.65625 311.90625 245.1875 311.75 244.796875 Z M 264.742188 251.183594 C 263.496094 248.925781 262.332031 246.511719 262.097656 243.628906 C 261.863281 240.4375 262.40625 237.398438 263.1875 234.359375 C 263.964844 231.167969 264.898438 228.050781 265.367188 224.78125 C 265.753906 221.976562 265.753906 219.171875 265.054688 216.214844 C 264.585938 214.421875 263.109375 209.980469 261.085938 206.476562 C 259.527344 203.75 257.660156 201.648438 255.871094 201.335938 C 255.480469 201.257812 255.015625 201.492188 254.9375 201.960938 C 254.859375 202.347656 255.09375 202.816406 255.558594 202.894531 C 256.183594 203.050781 256.804688 203.515625 257.425781 204.140625 C 258.207031 204.996094 258.984375 206.085938 259.683594 207.332031 C 261.550781 210.683594 262.953125 214.96875 263.34375 216.679688 C 263.964844 219.40625 263.886719 222.054688 263.574219 224.625 C 263.109375 227.820312 262.175781 230.855469 261.394531 233.972656 C 260.617188 237.164062 260.074219 240.4375 260.382812 243.863281 C 260.695312 247.058594 261.941406 249.628906 263.34375 252.121094 C 264.742188 254.535156 266.300781 256.792969 267.078125 259.441406 C 267.621094 261.386719 267.777344 263.570312 267 266.140625 C 266.84375 266.527344 267.078125 266.917969 267.464844 267.074219 C 267.855469 267.230469 268.324219 266.996094 268.402344 266.605469 C 269.335938 263.726562 269.257812 261.234375 268.632812 259.050781 C 267.777344 256.167969 266.144531 253.753906 264.742188 251.183594 Z M 245.054688 233.347656 C 244.585938 233.660156 244.121094 234.4375 243.886719 235.453125 C 243.417969 237.007812 243.261719 239.191406 243.183594 239.96875 C 242.953125 242.226562 243.109375 244.410156 243.339844 246.511719 C 243.574219 248.613281 243.964844 250.640625 243.886719 252.664062 C 243.886719 254.300781 243.652344 256.015625 242.953125 257.726562 C 242.796875 258.117188 242.953125 258.507812 243.339844 258.738281 C 243.730469 258.894531 244.121094 258.738281 244.351562 258.351562 C 245.207031 256.480469 245.597656 254.613281 245.675781 252.742188 C 245.753906 250.5625 245.519531 248.457031 245.285156 246.277344 C 245.054688 244.253906 244.820312 242.226562 245.054688 240.125 C 245.132812 239.5 245.207031 237.867188 245.441406 236.386719 C 245.519531 235.917969 245.597656 235.453125 245.753906 235.0625 C 245.832031 234.828125 245.910156 234.671875 246.066406 234.515625 C 246.375 234.28125 246.453125 233.816406 246.21875 233.425781 C 245.910156 233.191406 245.441406 233.035156 245.054688 233.347656 Z M 281.320312 226.648438 C 281.320312 226.648438 281.398438 226.726562 281.398438 226.726562 C 281.476562 226.648438 281.476562 226.570312 281.320312 226.648438 Z M 287.625 253.054688 C 286.84375 252.429688 286.222656 251.652344 285.753906 250.796875 C 284.976562 249.394531 284.742188 247.835938 284.742188 246.199219 C 284.742188 244.253906 284.976562 242.304688 285.210938 240.28125 C 285.367188 238.101562 285.445312 235.917969 284.898438 233.972656 C 284.664062 233.113281 284.355469 232.179688 284.042969 231.324219 C 283.730469 230.464844 283.34375 229.609375 282.875 228.832031 C 282.796875 228.675781 281.785156 227.351562 281.398438 226.726562 C 281.398438 226.804688 281.320312 226.960938 281.242188 227.039062 C 281.320312 226.882812 281.320312 226.726562 281.320312 226.648438 C 281.320312 226.648438 281.320312 226.570312 281.320312 226.570312 C 281.320312 226.417969 281.164062 226.183594 281.007812 226.105469 C 280.617188 225.871094 280.152344 225.949219 279.917969 226.261719 C 279.839844 226.339844 279.761719 226.496094 279.761719 226.726562 C 279.761719 226.882812 279.761719 227.117188 279.917969 227.351562 C 280.230469 227.972656 281.320312 229.375 281.398438 229.609375 C 281.785156 230.390625 282.097656 231.167969 282.410156 231.945312 C 282.71875 232.726562 282.953125 233.582031 283.109375 234.4375 C 283.5 236.230469 283.421875 238.175781 283.265625 240.125 C 283.109375 242.148438 282.796875 244.253906 282.875 246.277344 C 282.953125 248.226562 283.265625 250.015625 284.199219 251.652344 C 284.742188 252.664062 285.601562 253.519531 286.535156 254.300781 C 287.777344 255.3125 289.257812 256.246094 290.582031 257.105469 C 290.890625 257.339844 291.359375 257.261719 291.59375 256.949219 C 291.824219 256.636719 291.746094 256.167969 291.4375 255.9375 C 290.269531 255 288.867188 254.144531 287.625 253.054688 Z M 92.050781 342.78125 Z M 91.972656 342.78125 Z M 100.457031 358.203125 C 100.066406 356.257812 99.519531 354.308594 98.820312 352.441406 C 98.355469 351.191406 97.886719 349.945312 97.34375 348.699219 C 96.796875 347.453125 96.253906 346.207031 95.628906 345.039062 C 95.472656 344.730469 93.917969 342.46875 93.296875 341.769531 C 93.140625 341.613281 92.984375 341.457031 92.90625 341.378906 C 92.671875 341.222656 92.515625 341.222656 92.363281 341.300781 C 92.128906 341.300781 91.425781 341.613281 91.738281 342.390625 C 91.816406 342.546875 91.894531 342.625 91.972656 342.78125 C 91.972656 342.78125 91.972656 342.703125 92.050781 342.703125 C 92.050781 342.703125 92.050781 342.78125 92.128906 342.78125 C 92.128906 342.78125 92.207031 342.859375 92.207031 342.859375 C 92.128906 342.859375 92.128906 342.859375 92.128906 342.859375 C 92.207031 342.859375 92.207031 342.9375 92.285156 342.9375 C 92.90625 343.714844 94.074219 345.585938 94.152344 345.820312 C 94.695312 346.988281 95.242188 348.15625 95.707031 349.402344 C 96.175781 350.648438 96.640625 351.816406 97.03125 353.0625 C 97.652344 355.011719 98.199219 356.957031 98.585938 358.902344 C 98.976562 360.851562 99.367188 362.875 99.597656 364.902344 C 100.066406 368.953125 100.222656 373 100.300781 377.050781 C 100.300781 377.441406 100.609375 377.832031 101.078125 377.832031 C 101.46875 377.832031 101.855469 377.519531 101.855469 377.050781 C 101.933594 372.066406 101.855469 367.082031 101.234375 362.175781 C 100.921875 360.851562 100.6875 359.527344 100.457031 358.203125 Z M 164.660156 250.171875 C 164.195312 250.171875 180.925781 268.242188 194.699219 265.59375 C 217.347656 261.230469 224.820312 244.875 225.519531 240.515625 C 225.597656 240.203125 212.679688 252.273438 196.800781 254.300781 C 182.636719 256.167969 164.816406 250.484375 164.660156 250.171875 Z M 102.167969 166.597656 C 102.167969 166.753906 102.324219 166.675781 102.480469 166.597656 C 102.324219 166.597656 102.246094 166.597656 102.167969 166.597656 Z M 119.367188 173.609375 C 118.121094 172.59375 116.796875 171.660156 115.398438 170.726562 C 113.996094 169.871094 112.597656 169.089844 111.117188 168.3125 C 110.183594 167.84375 109.25 167.453125 108.316406 167.066406 C 107.382812 166.675781 106.449219 166.285156 105.515625 165.976562 L 103.414062 165.273438 C 103.257812 165.273438 102.632812 165.039062 102.402344 165.039062 C 102.011719 164.960938 101.777344 165.117188 101.699219 165.195312 C 101.542969 165.351562 101.46875 165.507812 101.390625 165.664062 C 101.390625 165.820312 101.390625 165.976562 101.46875 166.207031 C 101.621094 166.441406 101.855469 166.597656 102.089844 166.597656 C 102.089844 166.519531 102.246094 166.519531 102.324219 166.597656 C 102.402344 166.597656 102.402344 166.597656 102.480469 166.519531 C 102.480469 166.519531 102.402344 166.597656 102.402344 166.597656 C 102.632812 166.675781 102.867188 166.832031 102.945312 166.832031 L 104.890625 167.53125 C 105.824219 167.921875 106.679688 168.3125 107.613281 168.703125 C 108.550781 169.089844 109.40625 169.558594 110.261719 170.023438 C 110.496094 170.179688 110.804688 170.335938 111.039062 170.414062 C 111.039062 170.414062 111.039062 170.414062 110.960938 170.414062 C 110.726562 170.726562 110.804688 171.273438 111.117188 171.503906 C 111.507812 171.816406 111.738281 172.519531 111.972656 173.21875 C 112.363281 174.542969 112.597656 176.023438 112.828125 176.800781 C 113.140625 177.890625 113.375 178.984375 113.683594 180.074219 C 114.074219 181.863281 114.464844 183.578125 114.851562 185.371094 C 115.476562 188.015625 116.019531 190.664062 116.71875 193.390625 C 116.796875 193.78125 117.1875 194.015625 117.65625 193.9375 C 118.042969 193.859375 118.277344 193.46875 118.199219 193.003906 C 117.5 189.652344 116.953125 186.304688 116.332031 182.953125 C 116.097656 181.863281 115.863281 180.695312 115.554688 179.605469 C 115.242188 178.515625 114.929688 177.347656 114.621094 176.257812 C 114.308594 175.320312 113.996094 173.453125 113.375 172.050781 C 113.296875 171.894531 113.21875 171.738281 113.140625 171.503906 C 113.53125 171.738281 113.917969 171.972656 114.386719 172.207031 C 115.707031 173.0625 117.03125 173.917969 118.277344 174.855469 C 120.765625 176.722656 123.023438 178.828125 125.046875 181.320312 C 125.28125 181.628906 125.75 181.707031 126.136719 181.476562 C 126.449219 181.242188 126.527344 180.773438 126.292969 180.382812 C 124.191406 177.96875 121.933594 175.632812 119.367188 173.609375 Z M 273.226562 146.269531 C 273.460938 146.582031 273.382812 147.046875 273.070312 147.28125 C 270.578125 149.074219 268.089844 151.019531 265.675781 153.125 C 265.210938 153.511719 264.742188 153.980469 264.355469 154.371094 C 264.429688 154.449219 264.507812 154.527344 264.585938 154.605469 C 264.742188 154.757812 264.820312 155.070312 264.820312 155.539062 C 264.820312 156.003906 264.664062 156.707031 264.664062 157.097656 L 264.664062 160.679688 C 264.664062 161.769531 264.585938 162.78125 264.585938 163.871094 C 264.507812 166.285156 264.277344 168.777344 264.199219 171.195312 C 264.199219 171.582031 263.886719 171.972656 263.417969 171.972656 C 262.953125 171.972656 262.640625 171.660156 262.640625 171.195312 C 262.5625 169.402344 262.5625 167.6875 262.5625 165.898438 C 262.5625 164.808594 262.5625 163.792969 262.640625 162.703125 C 262.640625 162.003906 262.71875 161.300781 262.71875 160.601562 L 262.875 157.097656 C 262.875 156.785156 263.1875 156.160156 263.265625 155.773438 C 263.1875 155.695312 263.109375 155.617188 263.03125 155.539062 C 262.40625 156.160156 261.707031 156.863281 261.085938 157.484375 C 258.671875 160.054688 256.570312 162.78125 254.9375 165.820312 C 254.703125 166.207031 254.238281 166.363281 253.925781 166.132812 C 253.535156 165.898438 253.378906 165.429688 253.613281 165.117188 C 254.625 163.09375 255.792969 161.144531 257.195312 159.355469 C 258.515625 157.5625 260.074219 155.851562 261.628906 154.292969 C 262.5625 153.355469 263.574219 152.421875 264.585938 151.566406 C 267 149.539062 269.566406 147.671875 272.136719 146.035156 C 272.523438 145.800781 272.992188 145.878906 273.226562 146.269531 Z M 263.34375 155.617188 C 263.34375 155.460938 263.34375 155.382812 263.265625 155.382812 C 263.265625 155.382812 263.265625 155.382812 263.1875 155.460938 C 263.1875 155.539062 263.265625 155.539062 263.34375 155.617188 C 263.265625 155.617188 263.265625 155.617188 263.34375 155.617188 Z M 171.121094 210.917969 C 171.585938 211.304688 172.054688 211.773438 172.597656 212.164062 C 173.144531 212.550781 173.609375 212.941406 174.15625 213.253906 C 175.789062 214.34375 177.5 215.199219 179.371094 215.902344 C 181.238281 216.679688 183.105469 217.226562 184.972656 217.691406 C 188.398438 218.550781 192.597656 218.003906 196.414062 216.601562 C 200.304688 215.199219 203.804688 212.863281 205.90625 209.980469 C 206.453125 209.28125 207.308594 208.113281 207.929688 207.023438 C 208.320312 206.320312 208.632812 205.621094 208.632812 205.074219 C 208.632812 204.6875 208.941406 204.296875 209.410156 204.296875 C 209.796875 204.296875 210.1875 204.609375 210.1875 205.074219 C 210.1875 205.699219 209.953125 206.398438 209.644531 207.179688 C 209.019531 208.578125 207.929688 210.058594 207.308594 210.917969 C 205.128906 214.109375 201.316406 216.757812 197.113281 218.394531 C 192.910156 219.953125 188.320312 220.496094 184.503906 219.5625 C 182.558594 219.015625 180.613281 218.394531 178.667969 217.613281 C 176.722656 216.835938 174.933594 215.824219 173.222656 214.65625 C 172.675781 214.265625 172.132812 213.875 171.585938 213.410156 C 171.042969 213.019531 170.496094 212.550781 170.03125 212.085938 C 169.71875 211.773438 169.253906 211.074219 168.941406 210.605469 C 168.550781 210.527344 168.242188 210.214844 168.242188 209.828125 C 168.242188 209.28125 168.472656 209.046875 168.628906 208.96875 C 168.863281 208.8125 169.097656 208.8125 169.484375 208.96875 C 169.640625 209.046875 169.875 209.203125 170.03125 209.515625 C 170.339844 209.980469 170.808594 210.605469 171.121094 210.917969 Z M 168.785156 210.449219 C 168.707031 210.371094 168.707031 210.292969 168.707031 210.292969 C 168.628906 210.371094 168.707031 210.449219 168.785156 210.449219 Z M 169.019531 165.351562 C 169.40625 165.195312 169.640625 164.808594 169.484375 164.417969 C 168.628906 161.378906 165.59375 156.394531 161.703125 152.8125 C 159.058594 150.398438 156.101562 148.683594 153.140625 148.605469 C 150.652344 148.527344 148.238281 149.773438 146.058594 151.566406 C 142.480469 154.527344 139.679688 158.964844 138.976562 159.976562 C 138.746094 160.367188 138.824219 160.835938 139.210938 161.066406 C 139.601562 161.300781 140.066406 161.222656 140.300781 160.835938 C 141 159.820312 143.726562 155.773438 147.226562 152.96875 C 149.019531 151.566406 151.042969 150.398438 153.140625 150.476562 C 155.710938 150.554688 158.277344 152.109375 160.535156 154.136719 C 164.195312 157.40625 167.152344 162.003906 168.085938 164.808594 C 168.242188 165.273438 168.628906 165.507812 169.019531 165.351562 Z M 227.386719 145.878906 C 225.519531 144.632812 223.652344 144.089844 221.9375 144.089844 C 219.839844 144.011719 217.816406 144.710938 216.101562 145.800781 C 213.457031 147.4375 211.277344 149.929688 209.953125 152.03125 C 209.097656 153.28125 208.554688 154.371094 208.320312 154.835938 C 208.085938 155.304688 208.085938 155.539062 208.164062 155.617188 C 208.242188 156.003906 208.632812 156.316406 209.019531 156.238281 C 209.332031 156.160156 209.566406 155.925781 209.644531 155.695312 C 209.644531 155.695312 209.644531 155.695312 209.644531 155.617188 C 209.644531 155.539062 209.644531 155.460938 209.644531 155.382812 C 209.644531 155.382812 209.644531 155.460938 209.722656 155.539062 C 209.953125 155.070312 210.5 154.136719 211.355469 152.96875 C 212.679688 151.175781 214.703125 148.839844 217.113281 147.4375 C 218.59375 146.582031 220.148438 146.035156 221.9375 146.035156 C 223.730469 146.113281 225.675781 146.816406 227.777344 148.449219 C 229.800781 150.085938 231.980469 152.65625 234.15625 156.394531 C 234.390625 156.785156 234.78125 156.863281 235.167969 156.707031 C 235.558594 156.472656 235.636719 156.082031 235.480469 155.695312 C 232.679688 150.554688 229.957031 147.515625 227.386719 145.878906 Z M 209.566406 155.539062 C 209.566406 155.539062 209.566406 155.617188 209.566406 155.539062 C 209.644531 155.617188 209.644531 155.539062 209.566406 155.539062 Z M 172.210938 127.03125 C 173.453125 125.707031 171.199219 119.164062 170.496094 118.851562 C 170.1875 118.695312 163.414062 118.542969 157.8125 122.203125 C 146.292969 129.601562 133.84375 139.183594 134.386719 140.582031 C 135.867188 144.324219 146.917969 135.519531 157.34375 131.316406 C 163.648438 128.667969 169.71875 129.601562 172.210938 127.03125 Z M 235.636719 129.445312 C 227.308594 123.835938 209.253906 118.386719 203.960938 117.917969 C 201.082031 117.683594 202.171875 125.863281 203.960938 126.640625 C 205.363281 127.265625 213.066406 127.03125 220.925781 129.445312 C 231.042969 132.5625 241.707031 138.246094 241.785156 138.089844 C 242.097656 137.546875 241.316406 136.144531 241.085938 135.675781 C 239.917969 133.183594 237.972656 131.003906 235.636719 129.445312 Z M 235.636719 129.445312 " fill-opacity="1" fill-rule="evenodd"/></svg>