<svg xmlns="http://www.w3.org/2000/svg" xmlns:xlink="http://www.w3.org/1999/xlink" width="500" zoomAndPan="magnify" viewBox="0 0 375 374.999991" height="500" preserveAspectRatio="xMidYMid meet" version="1.0"><path fill="#e1758c" d="M 310.851562 284.203125 C 302.65625 314.191406 254.457031 314.785156 230.242188 309.058594 C 208.9375 303.996094 192.996094 287.550781 169.675781 292.238281 C 159.023438 294.398438 149.933594 300.722656 138.832031 301.316406 C 123.933594 302.0625 110.96875 295.289062 95.472656 298.640625 C 86.683594 300.574219 70.367188 315.234375 68.355469 314.488281 C 66.792969 313.894531 66.867188 312.40625 66.941406 310.917969 C 68.730469 290.824219 47.945312 277.730469 55.988281 258.160156 C 61.054688 245.957031 71.707031 238.066406 74.988281 224.820312 C 79.605469 206.21875 67.984375 190.367188 69.175781 172.210938 C 70.070312 159.117188 79.753906 151.300781 83.851562 139.617188 C 86.757812 131.210938 86.386719 121.910156 88.023438 113.203125 C 91.226562 96.386719 98.304688 80.238281 106.425781 65.28125 C 115.066406 49.355469 129.222656 26.808594 148.292969 22.34375 C 155.371094 20.707031 166.546875 28.296875 171.6875 33.28125 C 173.550781 35.070312 217.429688 -13.597656 256.09375 66.546875 C 263.769531 82.542969 274.421875 100.179688 276.433594 118.039062 C 277.773438 129.871094 276.285156 142.296875 280.234375 153.757812 C 285.671875 169.457031 301.390625 171.542969 308.171875 184.640625 C 312.863281 193.792969 306.234375 209.492188 306.234375 219.390625 C 306.308594 244.316406 318.378906 256.671875 310.851562 284.203125 Z M 310.851562 284.203125 " fill-opacity="1" fill-rule="evenodd"/><path fill="#fcf3e7" d="M 355.777344 382.949219 C 334.914062 391.359375 278.519531 383.320312 254.308594 382.726562 C 197.242188 381.386719 138.980469 390.09375 81.617188 391.582031 C 64.632812 392.027344 23.730469 395.152344 9.351562 386.820312 C 3.242188 383.246094 11.066406 370.894531 12.855469 366.503906 C 20.378906 348.125 26.113281 322.378906 42.730469 310.097656 C 64.484375 294.027344 95.996094 292.613281 121.398438 285.691406 C 127.433594 284.054688 138.164062 284.054688 143.453125 280.410156 L 237.917969 273.488281 C 246.113281 274.382812 254.53125 278.769531 262.949219 280.183594 C 290.886719 284.949219 336.40625 290.527344 354.507812 315.011719 C 365.164062 329.296875 378.199219 373.945312 355.777344 382.949219 Z M 355.777344 382.949219 " fill-opacity="1" fill-rule="evenodd"/><path fill="#fbdebf" d="M 257.210938 130.613281 C 254.828125 142.074219 247.230469 157.03125 234.789062 159.933594 C 234.191406 176.378906 230.09375 192.082031 219.8125 206.664062 C 219.441406 222.515625 223.984375 239.332031 228.007812 253.621094 C 229.050781 257.265625 230.242188 260.835938 231.808594 264.261719 C 236.578125 274.679688 242.609375 276.539062 233.597656 283.757812 C 232.105469 284.949219 230.542969 286.210938 228.976562 287.328125 C 226.296875 289.1875 223.613281 290.976562 220.632812 292.390625 C 216.386719 294.472656 211.769531 295.960938 207.074219 296.777344 C 190.460938 299.679688 171.464844 301.242188 156.636719 291.941406 C 154.253906 290.453125 144.71875 285.023438 144.71875 281.523438 C 144.71875 279.441406 150.15625 275.496094 151.421875 274.007812 C 154.925781 269.691406 156.414062 264.484375 157.160156 259.050781 C 158.648438 248.855469 158.054688 238.214844 155.820312 228.171875 C 155.148438 225.34375 154.402344 222.515625 153.507812 219.6875 C 148.964844 217.828125 144.570312 215.59375 141.21875 212.171875 C 130.9375 201.976562 127.359375 187.464844 124.082031 173.847656 L 124.15625 174.445312 C 104.042969 182.40625 94.804688 157.402344 95.25 141.40625 C 95.398438 137.609375 96.21875 124.214844 101.808594 123.398438 C 108.808594 122.429688 112.386719 131.804688 116.632812 136.566406 C 116.257812 134.1875 116.183594 121.761719 120.878906 115.582031 C 124.976562 110.152344 131.382812 108.066406 134.511719 101.59375 C 141.367188 87.382812 139.652344 71.308594 152.316406 59.699219 C 163.9375 49.058594 166.84375 57.394531 178.316406 57.691406 C 180.554688 57.765625 184.203125 52.480469 187.777344 52.257812 C 198.582031 51.515625 211.84375 66.84375 215.492188 75.476562 C 218.175781 81.726562 219.664062 88.496094 222.496094 94.671875 C 224.65625 99.4375 228.605469 103.675781 230.09375 108.738281 C 231.363281 112.90625 231.585938 117.445312 231.957031 121.835938 C 236.203125 115.0625 244.25 108.441406 252.742188 111.640625 C 260.042969 114.394531 258.480469 124.664062 257.210938 130.613281 Z M 257.210938 130.613281 " fill-opacity="1" fill-rule="evenodd"/><path fill="#e1758c" d="M 186.4375 166.480469 C 185.394531 167.523438 184.351562 165.144531 183.308594 165.960938 C 182.117188 166.929688 181.148438 168.640625 179.511719 168.9375 C 177.199219 169.234375 177.421875 166.035156 175.710938 165.441406 C 173.699219 164.769531 171.390625 169.308594 170.941406 165.664062 C 170.867188 165.144531 170.867188 164.695312 170.867188 164.175781 C 170.867188 163.503906 170.941406 162.835938 171.015625 162.242188 C 171.164062 161.199219 171.390625 160.230469 171.613281 159.191406 C 172.285156 156.511719 171.910156 146.316406 174.371094 147.507812 C 176.828125 148.699219 190.609375 162.09375 186.4375 166.480469 Z M 141.367188 169.757812 C 141.367188 171.019531 141.441406 172.285156 141.664062 173.476562 C 141.738281 173.847656 141.515625 174.222656 141.066406 174.296875 C 140.695312 174.371094 140.324219 174.148438 140.25 173.699219 C 139.875 172.136719 139.726562 170.5 139.652344 168.863281 C 139.578125 167.894531 139.578125 166.929688 139.578125 165.960938 C 139.578125 165.292969 139.578125 164.695312 139.652344 164.027344 L 139.800781 160.753906 C 139.800781 160.378906 139.726562 159.710938 139.800781 159.265625 C 139.800781 158.890625 139.949219 158.519531 140.023438 158.445312 C 140.175781 158.222656 140.398438 158.148438 140.621094 158.148438 C 140.769531 158.148438 141.066406 158.148438 141.292969 158.445312 C 141.589844 158.742188 141.589844 159.191406 141.292969 159.488281 C 141.21875 159.5625 141.21875 159.5625 141.140625 159.636719 C 141.21875 160.007812 141.441406 160.679688 141.441406 160.902344 L 141.441406 164.175781 C 141.441406 165.144531 141.441406 166.109375 141.441406 167.003906 C 141.367188 167.894531 141.367188 168.789062 141.367188 169.757812 Z M 141.140625 159.339844 C 141.140625 159.339844 141.21875 159.265625 141.21875 159.265625 C 141.21875 159.265625 141.367188 159.117188 141.292969 159.117188 C 141.140625 159.117188 141.140625 159.191406 141.140625 159.339844 Z M 146.132812 160.082031 C 146.132812 160.15625 146.132812 160.15625 146.132812 160.230469 C 146.132812 160.15625 146.132812 160.082031 146.132812 160.082031 Z M 146.582031 163.207031 L 146.28125 161.125 C 146.28125 160.976562 146.132812 160.679688 146.132812 160.378906 C 146.132812 160.304688 146.132812 160.304688 146.207031 160.230469 C 146.207031 160.230469 146.207031 160.304688 146.132812 160.304688 C 146.132812 160.15625 146.132812 160.082031 146.132812 160.082031 C 146.132812 160.082031 146.132812 160.082031 146.207031 160.082031 C 146.207031 160.007812 146.207031 159.859375 146.132812 159.785156 C 146.058594 159.488281 145.835938 159.339844 145.761719 159.339844 C 145.539062 159.191406 145.390625 159.265625 145.164062 159.265625 C 145.015625 159.265625 144.71875 159.488281 144.644531 160.007812 C 144.644531 160.230469 144.71875 160.902344 144.71875 161.199219 L 144.867188 163.355469 C 144.941406 164.175781 145.015625 165.066406 145.164062 165.886719 C 145.390625 167.152344 145.613281 168.417969 145.910156 169.683594 C 145.984375 170.054688 146.359375 170.351562 146.730469 170.277344 C 147.101562 170.203125 147.402344 169.832031 147.324219 169.457031 C 147.175781 167.96875 147.027344 166.480469 146.878906 164.992188 C 146.730469 164.472656 146.582031 163.804688 146.582031 163.207031 Z M 152.167969 161.941406 C 152.09375 161.496094 152.019531 161.050781 152.019531 160.753906 C 152.019531 160.753906 152.019531 160.753906 152.019531 160.679688 C 151.945312 160.753906 151.871094 160.753906 151.796875 160.828125 C 151.871094 160.753906 151.945312 160.679688 151.945312 160.605469 C 151.945312 160.527344 152.019531 160.527344 151.945312 160.527344 C 152.09375 160.304688 152.09375 160.007812 151.945312 159.785156 C 151.722656 159.414062 151.273438 159.339844 150.902344 159.5625 C 150.753906 159.636719 150.53125 159.933594 150.453125 160.304688 C 150.378906 160.601562 150.378906 161.125 150.378906 161.644531 C 150.378906 161.867188 150.378906 162.089844 150.453125 162.390625 C 150.453125 162.613281 150.53125 162.835938 150.53125 163.058594 C 150.753906 163.953125 150.976562 164.84375 151.050781 164.992188 C 151.125 165.367188 151.421875 165.664062 151.871094 165.589844 C 152.242188 165.515625 152.539062 165.21875 152.539062 164.769531 C 152.539062 164.546875 152.464844 163.578125 152.390625 162.539062 C 152.242188 162.464844 152.242188 162.242188 152.167969 161.941406 Z M 201.039062 158.371094 C 201.414062 160.527344 201.636719 162.761719 201.859375 164.917969 C 201.933594 165.292969 201.636719 165.664062 201.261719 165.738281 C 200.890625 165.8125 200.519531 165.515625 200.445312 165.144531 L 198.507812 154.425781 C 198.507812 154.277344 198.058594 152.269531 197.910156 151.449219 C 197.910156 151.226562 197.835938 151.078125 197.835938 151.078125 C 197.835938 150.484375 198.210938 150.335938 198.359375 150.335938 C 198.730469 150.1875 199.175781 150.410156 199.328125 150.78125 C 199.328125 150.855469 199.328125 150.929688 199.402344 151.003906 C 199.402344 151.003906 199.402344 151.003906 199.402344 151.078125 C 199.402344 151.078125 199.402344 151.152344 199.402344 151.152344 C 199.550781 151.972656 200.144531 153.980469 200.144531 154.128906 C 200.371094 155.023438 200.519531 155.839844 200.742188 156.734375 C 200.816406 157.179688 200.964844 157.777344 201.039062 158.371094 Z M 199.328125 151.152344 C 199.253906 151.300781 199.101562 151.523438 198.953125 151.597656 C 199.101562 151.523438 199.253906 151.375 199.328125 151.152344 Z M 199.328125 150.929688 C 199.402344 150.929688 199.402344 150.855469 199.328125 150.929688 Z M 206.179688 157.105469 C 206.105469 156.4375 206.03125 155.765625 205.882812 155.171875 C 205.660156 154.054688 205.285156 152.9375 204.914062 151.898438 C 204.765625 151.523438 204.316406 151.300781 203.945312 151.449219 C 203.574219 151.597656 203.351562 152.046875 203.5 152.417969 C 203.796875 153.386719 203.945312 154.5 204.09375 155.617188 C 204.242188 156.363281 204.316406 157.105469 204.46875 157.851562 C 204.617188 158.667969 204.839844 159.488281 204.988281 160.230469 C 205.0625 160.605469 205.4375 160.902344 205.808594 160.753906 C 206.179688 160.679688 206.480469 160.304688 206.328125 159.933594 C 206.328125 159.039062 206.328125 158.074219 206.179688 157.105469 Z M 211.394531 162.761719 C 211.023438 162.835938 210.652344 162.613281 210.5 162.242188 C 210.128906 161.050781 209.832031 159.859375 209.53125 158.667969 C 209.308594 157.851562 209.160156 157.03125 209.011719 156.289062 L 208.640625 154.128906 C 208.640625 154.054688 208.640625 153.757812 208.640625 153.535156 C 208.640625 153.535156 208.566406 153.460938 208.566406 153.460938 C 208.566406 153.3125 208.488281 153.238281 208.414062 153.238281 C 208.265625 152.863281 208.339844 152.492188 208.714844 152.269531 C 208.9375 152.121094 209.234375 152.121094 209.53125 152.269531 C 209.609375 152.34375 209.757812 152.492188 209.832031 152.714844 C 209.90625 152.9375 210.054688 153.609375 210.128906 153.683594 L 210.652344 155.765625 C 210.800781 156.585938 211.023438 157.402344 211.171875 158.148438 C 211.394531 159.339844 211.617188 160.605469 211.84375 161.792969 C 212.066406 162.316406 211.769531 162.6875 211.394531 162.761719 Z M 209.457031 153.683594 C 209.234375 153.757812 209.085938 153.683594 208.863281 153.609375 C 209.085938 153.757812 209.234375 153.757812 209.457031 153.683594 Z M 208.640625 153.386719 C 208.640625 153.386719 208.640625 153.3125 208.566406 153.3125 C 208.414062 153.3125 208.566406 153.460938 208.714844 153.535156 C 208.640625 153.460938 208.640625 153.386719 208.640625 153.386719 Z M 208.640625 153.386719 " fill-opacity="1" fill-rule="nonzero"/><path fill="#e1758c" d="M 25.371094 331.679688 C 25.519531 331.753906 25.890625 331.753906 26.488281 331.753906 C 28.796875 331.605469 34.609375 330.636719 34.90625 330.636719 C 38.554688 330.191406 42.207031 329.894531 45.78125 329.667969 C 49.433594 329.445312 53.082031 329.371094 56.734375 329.445312 C 61.351562 329.519531 65.972656 329.894531 70.515625 330.414062 C 81.246094 331.605469 91.972656 333.539062 102.699219 334.507812 C 121.699219 336.292969 140.695312 337.855469 159.617188 337.484375 C 172.285156 337.257812 184.949219 336.21875 197.539062 333.835938 C 230.242188 327.660156 263.171875 316.425781 296.472656 311.585938 C 310.777344 309.503906 325.15625 308.683594 339.683594 309.949219 C 340.054688 309.949219 340.429688 309.726562 340.429688 309.28125 C 340.429688 308.910156 340.207031 308.535156 339.757812 308.535156 C 325.15625 307.195312 310.628906 308.015625 296.25 310.023438 C 262.875 314.710938 229.945312 325.875 197.167969 332.050781 C 184.648438 334.359375 172.132812 335.472656 159.542969 335.695312 C 140.695312 336.070312 121.699219 334.582031 102.773438 332.871094 C 92.046875 331.902344 81.320312 330.042969 70.589844 328.851562 C 65.972656 328.332031 61.277344 328.03125 56.660156 327.957031 C 52.933594 327.882812 49.285156 327.957031 45.632812 328.253906 C 41.984375 328.480469 38.332031 328.851562 34.609375 329.296875 C 34.382812 329.296875 28.574219 330.339844 26.339844 330.488281 C 26.191406 330.488281 25.964844 330.488281 25.816406 330.488281 C 25.667969 330.414062 25.519531 330.414062 25.371094 330.414062 C 24.996094 330.488281 24.699219 330.859375 24.773438 331.308594 C 24.773438 331.230469 24.921875 331.53125 25.371094 331.679688 Z M 26.191406 330.636719 Z M 26.191406 330.636719 Z M 360.765625 349.910156 C 360.765625 350.28125 360.394531 350.578125 359.949219 350.578125 C 343.855469 348.941406 327.914062 348.496094 311.96875 349.316406 C 296.101562 350.132812 280.308594 352.292969 264.4375 355.714844 C 240.375 360.921875 216.835938 368.140625 192.769531 372.976562 C 182.414062 375.0625 172.058594 376.773438 161.480469 377.664062 C 149.261719 378.707031 137.863281 378.113281 126.765625 376.699219 C 109.851562 374.539062 93.613281 370.375 75.730469 367.25 C 66.867188 365.683594 56.136719 364.792969 45.410156 364.421875 C 34.683594 364.046875 23.878906 364.273438 14.867188 364.71875 C 14.492188 364.71875 14.121094 364.421875 14.121094 364.046875 C 14.121094 363.675781 14.417969 363.304688 14.792969 363.304688 C 23.878906 362.785156 34.683594 362.558594 45.410156 362.933594 C 56.214844 363.230469 67.015625 364.046875 75.957031 365.683594 C 93.761719 368.8125 110 372.902344 126.914062 375.0625 C 137.863281 376.476562 149.113281 376.996094 161.183594 375.953125 C 171.6875 375.0625 182.042969 373.351562 192.324219 371.265625 C 216.386719 366.429688 239.929688 359.285156 263.992188 354.078125 C 279.933594 350.652344 295.878906 348.570312 311.820312 347.828125 C 327.765625 347.007812 343.855469 347.527344 360.023438 349.238281 C 360.542969 349.164062 360.765625 349.464844 360.765625 349.910156 Z M 360.765625 349.910156 " fill-opacity="1" fill-rule="evenodd"/><path fill="#000000" d="M 130.5625 123.769531 L 130.710938 121.910156 C 130.042969 120.273438 134.214844 116.253906 135.035156 115.359375 C 139.355469 110.820312 145.761719 106.730469 152.167969 106.132812 C 154.105469 105.984375 158.128906 105.984375 159.097656 108.292969 C 159.542969 109.332031 157.90625 109.855469 157.160156 110.152344 C 154.476562 111.34375 151.648438 112.234375 148.816406 113.203125 C 141.886719 115.582031 135.851562 118.785156 130.5625 123.769531 Z M 219.886719 112.679688 C 218.84375 111.34375 214.078125 106.28125 208.042969 103.601562 C 202.605469 101.222656 195.898438 101.148438 193.441406 102.039062 C 192.175781 102.5625 192.25 104.644531 193.515625 105.910156 C 194.335938 106.804688 201.261719 106.878906 207.445312 109.109375 C 214.449219 111.640625 220.78125 116.179688 221.230469 115.957031 C 221.898438 115.734375 220.039062 112.90625 219.886719 112.679688 Z M 188.078125 235.539062 C 203.945312 235.613281 219.515625 207.113281 219.441406 207.113281 C 219.070312 207.039062 202.457031 220.28125 187.855469 223.332031 C 172.433594 226.609375 153.582031 220.355469 153.582031 220.355469 C 153.582031 220.355469 167.8125 235.539062 188.078125 235.539062 Z M 166.324219 189.105469 C 165.949219 189.328125 165.875 189.773438 166.101562 190.144531 C 166.25 190.367188 166.398438 190.441406 166.621094 190.515625 C 166.769531 190.515625 166.917969 190.515625 167.066406 190.441406 C 166.992188 190.441406 166.917969 190.59375 166.769531 190.59375 C 167.292969 190.816406 168.261719 191.335938 168.484375 191.410156 C 169.601562 191.707031 170.71875 191.929688 171.835938 192.082031 C 172.953125 192.230469 174.070312 192.378906 175.1875 192.378906 C 177.722656 192.453125 180.402344 192.378906 183.085938 192.003906 C 185.691406 191.632812 188.300781 190.890625 190.683594 189.773438 C 193.960938 188.285156 196.792969 186.050781 198.804688 183 C 199.027344 182.703125 198.953125 182.257812 198.582031 182.035156 C 198.285156 181.8125 197.835938 181.886719 197.613281 182.257812 C 195.675781 185.011719 192.996094 186.945312 189.941406 188.285156 C 187.703125 189.253906 185.246094 189.921875 182.714844 190.292969 C 180.179688 190.667969 177.574219 190.816406 175.1875 190.742188 C 174.144531 190.742188 173.027344 190.667969 171.984375 190.515625 C 170.941406 190.367188 169.824219 190.21875 168.78125 189.996094 C 168.558594 189.921875 167.515625 189.402344 167.070312 189.253906 C 166.695312 188.953125 166.398438 189.027344 166.324219 189.105469 Z M 166.621094 190.515625 C 166.546875 190.59375 166.621094 190.59375 166.769531 190.59375 C 166.695312 190.515625 166.695312 190.515625 166.621094 190.515625 Z M 157.679688 140.957031 C 157.757812 140.585938 157.53125 140.214844 157.160156 140.140625 C 154.703125 139.617188 151.648438 139.394531 148.816406 139.84375 C 146.804688 140.140625 144.941406 140.808594 143.453125 141.777344 C 142.707031 142.296875 141.589844 143.339844 140.546875 144.53125 C 139.726562 145.570312 138.980469 146.761719 138.535156 147.953125 C 138.386719 148.324219 138.535156 148.773438 138.980469 148.921875 C 139.355469 149.070312 139.800781 148.921875 139.949219 148.546875 C 140.398438 147.507812 141.140625 146.464844 141.886719 145.648438 C 142.78125 144.605469 143.824219 143.710938 144.496094 143.339844 C 145.164062 142.894531 145.910156 142.59375 146.730469 142.296875 C 147.921875 141.851562 149.1875 141.628906 150.453125 141.40625 C 152.691406 141.105469 155 141.183594 156.9375 141.554688 C 157.234375 141.554688 157.605469 141.332031 157.679688 140.957031 Z M 212.886719 141.183594 C 213.109375 140.882812 213.109375 140.4375 212.738281 140.140625 C 211.394531 139.023438 208.789062 136.941406 205.734375 135.304688 C 204.019531 134.410156 202.230469 133.589844 200.371094 133.070312 C 196.71875 132.101562 193.21875 132.476562 190.984375 135.378906 C 190.757812 135.675781 190.757812 136.195312 191.132812 136.417969 C 191.429688 136.644531 191.875 136.644531 192.175781 136.269531 C 194.113281 133.964844 196.941406 133.964844 199.921875 134.78125 C 201.5625 135.230469 203.273438 135.972656 204.914062 136.792969 C 207.894531 138.355469 210.574219 140.140625 211.917969 141.183594 C 212.140625 141.554688 212.585938 141.480469 212.886719 141.183594 Z M 113.875 147.210938 C 112.90625 146.390625 111.9375 145.648438 110.894531 144.976562 C 109.851562 144.308594 108.808594 143.785156 107.617188 143.265625 C 107.023438 143.042969 106.425781 142.746094 105.828125 142.519531 C 104.9375 142.222656 104.117188 141.925781 103.222656 141.554688 C 103 141.480469 101.730469 141.105469 101.285156 140.957031 C 101.136719 140.882812 101.0625 140.882812 100.988281 140.882812 C 100.765625 140.882812 100.613281 140.882812 100.539062 140.957031 C 100.316406 141.03125 100.167969 141.183594 100.167969 141.40625 C 100.09375 141.554688 100.09375 141.703125 100.167969 141.925781 C 100.167969 142 100.242188 142.222656 100.539062 142.371094 C 100.613281 142.445312 100.6875 142.445312 100.839844 142.445312 C 100.839844 142.445312 100.914062 142.445312 100.914062 142.445312 C 101.359375 142.59375 102.476562 143.042969 102.699219 143.117188 C 103.667969 143.5625 104.710938 143.933594 105.679688 144.382812 C 106.054688 144.53125 106.5 144.753906 106.871094 144.902344 C 106.945312 144.976562 107.023438 144.976562 107.171875 145.050781 C 107.097656 145.273438 107.097656 145.496094 107.246094 145.722656 C 108.066406 147.058594 108.585938 148.773438 109.03125 150.632812 C 109.257812 151.449219 109.40625 152.269531 109.554688 153.085938 C 109.703125 153.90625 109.851562 154.726562 110 155.617188 C 110.523438 158.371094 111.042969 161.050781 111.640625 163.207031 C 111.714844 163.578125 112.164062 163.804688 112.535156 163.730469 C 112.90625 163.65625 113.128906 163.207031 113.054688 162.835938 C 112.535156 160.679688 112.238281 158 111.789062 155.320312 C 111.640625 154.425781 111.492188 153.609375 111.34375 152.789062 C 111.195312 151.898438 110.96875 151.078125 110.746094 150.261719 C 110.300781 148.773438 109.777344 147.359375 109.183594 146.167969 C 109.480469 146.316406 109.703125 146.464844 110 146.613281 C 111.042969 147.210938 111.9375 147.878906 112.832031 148.625 C 114.621094 150.035156 116.257812 151.675781 117.898438 153.609375 C 118.121094 153.90625 118.570312 153.980469 118.941406 153.683594 C 119.238281 153.460938 119.3125 153.011719 119.015625 152.640625 C 117.300781 150.558594 115.664062 148.773438 113.875 147.210938 Z M 235.457031 132.921875 C 236.351562 131.730469 237.320312 130.691406 238.289062 129.722656 C 238.960938 129.050781 239.707031 128.457031 240.449219 127.863281 C 243.207031 125.777344 246.1875 124.066406 249.242188 122.132812 C 249.539062 121.910156 249.988281 121.984375 250.210938 122.28125 C 250.433594 122.578125 250.359375 123.023438 250.0625 123.25 C 247.527344 125.035156 244.996094 126.671875 242.609375 128.457031 C 242.683594 128.53125 242.761719 128.605469 242.835938 128.753906 C 242.910156 128.902344 242.910156 129.125 242.910156 129.5 C 242.835938 129.871094 242.683594 130.464844 242.761719 130.839844 L 242.984375 134.78125 C 243.058594 136.269531 243.132812 137.757812 243.207031 139.246094 C 243.28125 141.480469 243.355469 143.785156 243.429688 146.019531 C 243.429688 146.390625 243.132812 146.761719 242.761719 146.761719 C 242.386719 146.761719 242.015625 146.464844 242.015625 146.09375 C 241.792969 143.859375 241.566406 141.628906 241.417969 139.320312 C 241.34375 137.832031 241.269531 136.269531 241.195312 134.78125 L 241.195312 130.765625 C 241.195312 130.539062 241.492188 129.945312 241.566406 129.574219 C 241.566406 129.574219 241.492188 129.5 241.492188 129.5 C 241.492188 129.425781 241.417969 129.425781 241.417969 129.351562 C 240.824219 129.871094 240.226562 130.316406 239.632812 130.914062 C 238.664062 131.804688 237.769531 132.773438 236.875 133.816406 C 236.351562 134.484375 235.382812 135.453125 234.714844 136.566406 C 234.265625 137.164062 233.96875 137.757812 233.96875 138.28125 C 233.96875 138.726562 233.671875 139.023438 233.222656 139.023438 C 232.851562 139.023438 232.480469 138.726562 232.480469 138.28125 C 232.480469 137.683594 232.703125 136.941406 233.074219 136.195312 C 233.671875 135.078125 234.863281 133.667969 235.457031 132.921875 Z M 241.566406 129.5 C 241.566406 129.425781 241.566406 129.351562 241.566406 129.277344 C 241.566406 129.277344 241.492188 129.351562 241.492188 129.351562 C 241.492188 129.425781 241.566406 129.5 241.566406 129.5 Z M 236.425781 267.980469 C 233.523438 269.691406 223.242188 284.425781 192.621094 288.816406 C 173.328125 291.570312 167.066406 285.320312 149.859375 274.230469 C 147.625 274.53125 135.257812 281.078125 134.363281 283.308594 C 133.914062 284.351562 136.226562 286.585938 136.746094 287.253906 C 139.875 291.050781 143.453125 294.398438 147.476562 297.152344 C 163.121094 307.867188 206.03125 316.648438 234.042969 291.941406 C 237.46875 288.890625 240.003906 284.949219 242.761719 281.300781 C 243.878906 279.8125 244.921875 278.175781 245.964844 276.6875 C 246.1875 276.390625 246.632812 275.867188 246.632812 275.867188 C 246.632812 275.867188 245.21875 275.050781 244.472656 274.605469 C 243.207031 273.785156 236.726562 267.757812 236.425781 267.980469 Z M 109.40625 102.113281 C 118.195312 94.523438 122.070312 85.148438 125.421875 75.921875 C 127.808594 69.449219 129.96875 63.046875 133.617188 57.394531 C 135.777344 54.042969 138.460938 50.917969 142.035156 48.238281 C 144.644531 46.304688 152.691406 42.363281 158.949219 41.839844 C 161.554688 41.617188 163.863281 41.988281 165.207031 43.550781 C 165.949219 44.519531 166.398438 45.859375 166.324219 47.71875 C 166.324219 48.089844 166.621094 48.464844 167.066406 48.464844 C 167.515625 48.464844 167.8125 48.164062 167.8125 47.71875 C 167.886719 45.5625 167.441406 43.925781 166.621094 42.808594 C 165.578125 41.394531 164.089844 40.574219 162.152344 40.277344 C 159.023438 39.757812 154.925781 40.574219 151.050781 41.914062 C 146.730469 43.402344 142.707031 45.488281 140.992188 46.75 C 137.195312 49.503906 134.363281 52.777344 132.128906 56.277344 C 128.402344 62.007812 126.242188 68.554688 123.859375 75.175781 C 120.582031 84.179688 117.003906 93.410156 108.511719 100.925781 C 108.214844 101.222656 108.214844 101.667969 108.4375 101.964844 C 108.660156 102.339844 109.109375 102.339844 109.40625 102.113281 Z M 95.546875 171.019531 C 95.625 171.019531 95.625 171.019531 95.625 171.019531 C 95.625 170.945312 95.625 171.019531 95.546875 171.019531 Z M 95.773438 199.671875 C 94.65625 194.535156 93.910156 189.253906 94.132812 183.671875 C 94.132812 183.152344 94.28125 179.058594 94.730469 175.558594 C 94.953125 173.847656 95.175781 172.359375 95.546875 171.46875 C 95.546875 171.394531 95.625 171.171875 95.699219 171.097656 C 95.625 171.097656 95.625 171.097656 95.546875 171.097656 C 95.625 171.097656 95.625 171.097656 95.699219 171.097656 C 95.699219 171.019531 95.773438 171.019531 95.773438 171.019531 C 96.070312 170.945312 96.292969 170.648438 96.21875 170.277344 C 96.21875 169.90625 95.847656 169.53125 95.472656 169.53125 C 95.101562 169.53125 94.730469 169.757812 94.429688 170.203125 C 94.132812 170.648438 93.835938 171.46875 93.613281 172.507812 C 92.867188 176.15625 92.496094 182.851562 92.496094 183.523438 C 92.269531 189.253906 92.941406 194.683594 94.058594 199.96875 C 95.773438 207.855469 98.453125 215.519531 100.242188 223.707031 C 101.285156 228.246094 101.957031 233.007812 101.957031 237.769531 C 101.957031 242.457031 101.210938 247.144531 99.421875 251.535156 C 97.039062 257.488281 92.121094 262.847656 89.886719 268.949219 C 88.84375 271.703125 88.324219 274.53125 88.769531 277.65625 C 88.84375 278.027344 89.214844 278.324219 89.589844 278.25 C 89.960938 278.175781 90.257812 277.804688 90.183594 277.433594 C 89.8125 274.605469 90.332031 271.925781 91.300781 269.46875 C 93.613281 263.441406 98.527344 258.085938 100.988281 252.207031 C 102.925781 247.59375 103.667969 242.753906 103.742188 237.84375 C 103.816406 233.007812 103.074219 228.097656 102.03125 223.332031 C 100.167969 215.148438 97.484375 207.558594 95.773438 199.671875 Z M 122.742188 250.046875 C 122.292969 245.0625 122.890625 240.152344 123.410156 235.015625 C 123.933594 230.03125 124.378906 224.96875 123.785156 219.613281 C 123.636719 218.644531 121.625 208.824219 120.878906 204.878906 C 120.730469 204.210938 120.65625 203.6875 120.582031 203.464844 L 120.582031 203.390625 C 120.582031 203.167969 120.507812 202.945312 120.28125 202.796875 C 119.910156 202.574219 119.464844 202.648438 119.238281 202.945312 C 119.238281 202.945312 119.089844 203.242188 119.089844 203.6875 C 119.089844 203.910156 119.238281 204.507812 119.3125 205.175781 C 119.984375 209.121094 121.847656 218.867188 121.996094 219.835938 C 122.519531 225.046875 121.996094 230.03125 121.550781 234.867188 C 121.027344 240.078125 120.507812 245.136719 121.027344 250.269531 C 121.476562 254.4375 122.667969 258.605469 125.273438 262.847656 C 125.496094 263.21875 125.945312 263.292969 126.242188 263.070312 C 126.613281 262.847656 126.691406 262.398438 126.464844 262.101562 C 124.230469 258.011719 123.113281 254.066406 122.742188 250.046875 Z M 182.265625 46.082031 C 182.191406 46.007812 182.042969 45.710938 182.265625 45.1875 C 182.414062 44.890625 182.714844 44.667969 183.011719 44.742188 C 183.53125 44.074219 184.128906 42.734375 184.648438 42.4375 C 185.542969 41.765625 186.4375 41.246094 187.40625 40.722656 C 188.375 40.203125 189.34375 39.757812 190.386719 39.386719 C 193.8125 38.046875 197.316406 37.226562 200.742188 37.300781 C 204.242188 37.375 207.671875 38.269531 210.949219 40.351562 C 215.792969 43.476562 219.144531 47.570312 221.824219 52.183594 C 224.804688 57.46875 226.816406 63.421875 229.050781 69.300781 C 231.210938 75.101562 233.597656 80.757812 237.246094 85.445312 C 237.46875 85.746094 237.46875 86.191406 237.097656 86.488281 C 236.800781 86.710938 236.351562 86.710938 236.128906 86.339844 C 232.253906 81.578125 229.796875 75.773438 227.488281 69.894531 C 225.253906 64.164062 223.242188 58.285156 220.261719 53.078125 C 217.726562 48.6875 214.597656 44.742188 209.980469 41.839844 C 207 39.90625 203.871094 39.085938 200.742188 39.011719 C 197.539062 38.9375 194.261719 39.683594 190.984375 40.875 C 190.015625 41.246094 189.121094 41.617188 188.152344 42.0625 C 187.257812 42.511719 186.363281 43.03125 185.542969 43.625 C 184.949219 44.074219 183.90625 45.636719 183.605469 46.082031 C 183.011719 46.75 182.339844 46.230469 182.265625 46.082031 Z M 182.414062 45.113281 C 182.488281 45.1875 182.640625 45.113281 182.789062 44.964844 C 182.714844 44.964844 182.640625 44.964844 182.640625 44.964844 C 182.5625 45.039062 182.265625 45.039062 182.414062 45.113281 Z M 239.480469 72.945312 C 239.40625 72.945312 239.40625 72.945312 239.480469 72.945312 C 239.40625 73.019531 239.480469 73.019531 239.554688 73.019531 Z M 239.035156 71.976562 C 239.109375 71.753906 239.480469 71.234375 240.152344 71.679688 C 240.226562 71.753906 240.449219 71.902344 240.675781 72.050781 C 241.71875 73.019531 244.324219 75.550781 244.472656 75.699219 C 246.410156 77.855469 248.125 80.089844 249.6875 82.542969 C 251.253906 84.925781 252.667969 87.457031 253.933594 89.984375 C 255.648438 93.410156 257.0625 96.980469 258.253906 100.550781 C 259.449219 104.125 260.417969 107.84375 261.160156 111.566406 C 263.546875 122.652344 264.664062 134.039062 266.824219 144.976562 C 266.898438 145.347656 266.675781 145.722656 266.300781 145.796875 C 265.929688 145.871094 265.558594 145.648438 265.480469 145.273438 C 263.171875 134.335938 261.90625 122.949219 259.449219 111.9375 C 258.628906 108.292969 257.734375 104.644531 256.542969 101.074219 C 255.425781 97.5 254.082031 94.078125 252.445312 90.730469 C 251.253906 88.199219 249.910156 85.746094 248.347656 83.4375 C 246.855469 81.054688 245.21875 78.824219 243.355469 76.738281 C 243.207031 76.589844 240.75 74.0625 239.707031 73.167969 C 239.632812 73.09375 239.632812 73.019531 239.554688 73.019531 C 239.554688 73.019531 239.632812 73.019531 239.632812 73.019531 C 239.632812 73.019531 239.554688 73.019531 239.480469 73.019531 C 239.40625 72.945312 239.40625 72.945312 239.332031 72.945312 C 239.035156 72.722656 238.886719 72.351562 239.035156 71.976562 Z M 239.78125 73.019531 C 240.078125 73.019531 240.300781 72.871094 240.375 72.574219 C 240.300781 72.871094 240.078125 73.019531 239.78125 73.019531 Z M 252.667969 245.804688 C 251.253906 244.09375 249.910156 242.308594 248.867188 240.300781 C 246.632812 236.207031 245.589844 231.816406 245.144531 227.277344 C 244.472656 220.355469 245.292969 213.140625 245.890625 206.441406 C 246.039062 204.136719 246.933594 194.164062 246.484375 186.796875 C 246.335938 184.414062 246.039062 182.332031 245.589844 180.84375 C 245.21875 179.578125 244.621094 178.6875 243.878906 178.3125 C 243.503906 178.089844 243.058594 178.238281 242.835938 178.613281 C 242.609375 178.984375 242.761719 179.429688 243.132812 179.578125 C 243.578125 179.800781 243.878906 180.398438 244.101562 181.214844 C 244.546875 182.628906 244.769531 184.566406 244.921875 186.796875 C 245.292969 194.015625 244.398438 203.910156 244.175781 206.21875 C 243.578125 213.066406 242.761719 220.355469 243.429688 227.351562 C 243.878906 232.113281 245.070312 236.800781 247.527344 241.042969 C 248.644531 243.128906 250.0625 244.988281 251.550781 246.773438 C 254.976562 250.792969 259 254.363281 261.980469 258.753906 C 262.203125 259.050781 262.652344 259.125 262.949219 258.902344 C 263.246094 258.679688 263.320312 258.234375 263.097656 257.9375 C 260.042969 253.546875 256.09375 249.898438 252.667969 245.804688 Z M 263.320312 176.378906 C 263.394531 176.230469 263.394531 176.082031 263.320312 176.082031 C 263.320312 176.230469 263.320312 176.304688 263.320312 176.378906 Z M 281.351562 225.121094 C 279.265625 219.6875 278.371094 213.511719 277.253906 207.484375 C 276.136719 201.160156 274.945312 194.90625 272.335938 189.625 C 271.441406 187.839844 270.398438 186.054688 269.28125 184.414062 C 267.644531 181.886719 265.78125 179.578125 263.992188 177.125 C 263.917969 177.046875 263.472656 176.675781 263.246094 176.378906 C 263.246094 176.453125 263.171875 176.527344 263.171875 176.527344 C 263.171875 176.453125 263.246094 176.378906 263.246094 176.378906 C 263.171875 176.230469 263.171875 176.15625 263.246094 176.15625 C 263.246094 175.933594 263.097656 175.710938 262.875 175.558594 C 262.503906 175.335938 262.054688 175.484375 261.90625 175.859375 C 261.832031 176.007812 261.757812 176.304688 261.832031 176.601562 C 261.980469 177.046875 262.652344 177.867188 262.726562 178.015625 C 264.4375 180.472656 266.226562 182.851562 267.867188 185.308594 C 268.910156 186.945312 269.878906 188.65625 270.773438 190.367188 C 273.230469 195.503906 274.347656 201.605469 275.390625 207.78125 C 276.507812 213.957031 277.550781 220.207031 279.710938 225.714844 C 281.722656 230.773438 284.628906 235.164062 289.320312 238.363281 C 289.621094 238.589844 290.066406 238.515625 290.289062 238.214844 C 290.515625 237.917969 290.441406 237.472656 290.140625 237.25 C 285.820312 234.125 283.140625 229.882812 281.351562 225.121094 Z M 75.433594 360.699219 C 75.730469 365.089844 75.507812 369.40625 75.136719 373.796875 C 74.613281 380.046875 73.945312 386.371094 74.09375 393.070312 C 74.09375 393.441406 73.792969 393.8125 73.421875 393.8125 C 73.050781 393.8125 72.675781 393.515625 72.675781 393.144531 C 72.378906 386.371094 72.976562 379.972656 73.421875 373.648438 C 73.71875 369.40625 73.871094 365.164062 73.570312 360.847656 C 73.273438 356.53125 72.527344 352.140625 70.890625 347.527344 C 70.367188 346.113281 69.847656 344.777344 69.25 343.4375 C 68.65625 342.097656 67.984375 340.757812 67.3125 339.492188 C 67.089844 339.121094 64.035156 333.761719 62.546875 331.976562 C 62.472656 331.902344 62.394531 331.828125 62.394531 331.753906 C 62.246094 331.753906 62.097656 331.753906 61.949219 331.605469 C 61.578125 331.382812 61.503906 330.933594 61.726562 330.5625 C 61.949219 330.191406 62.320312 330.042969 62.769531 330.265625 C 62.992188 330.339844 63.289062 330.5625 63.664062 331.007812 C 65.300781 332.796875 68.578125 338.300781 68.804688 338.671875 C 69.546875 340.011719 70.21875 341.351562 70.816406 342.691406 C 71.410156 344.03125 72.007812 345.445312 72.527344 346.859375 C 74.242188 351.695312 75.136719 356.234375 75.433594 360.699219 Z M 62.320312 331.753906 C 62.246094 331.679688 62.246094 331.605469 62.171875 331.679688 C 62.097656 331.753906 62.171875 331.753906 62.320312 331.753906 Z M 311.894531 315.753906 C 311.894531 316.050781 311.746094 316.351562 311.449219 316.5 C 311.300781 317.242188 311.375 318.433594 311.226562 318.953125 L 310.257812 323.121094 L 307.351562 335.996094 C 306.457031 339.789062 305.9375 343.957031 305.5625 348.273438 C 305.265625 352.292969 305.191406 356.53125 305.339844 360.773438 C 305.710938 369.40625 306.980469 378.113281 309.363281 385.332031 C 309.511719 385.703125 309.289062 386.148438 308.914062 386.222656 C 308.542969 386.371094 308.097656 386.148438 308.023438 385.777344 C 305.5625 378.484375 304 369.703125 303.625 360.847656 C 303.402344 356.605469 303.476562 352.292969 303.773438 348.199219 C 304.074219 343.734375 304.742188 339.492188 305.636719 335.621094 L 308.765625 322.75 L 309.808594 318.582031 C 309.957031 317.839844 310.183594 315.976562 310.332031 315.53125 C 310.628906 314.636719 311.375 314.863281 311.597656 315.085938 C 311.671875 315.160156 311.894531 315.382812 311.894531 315.753906 Z M 311.746094 315.976562 C 311.597656 315.976562 311.523438 316.050781 311.523438 316.273438 C 311.746094 316.199219 311.96875 316.050781 311.746094 315.976562 Z M 311.746094 315.976562 " fill-opacity="1" fill-rule="evenodd"/></svg>